<svg enable-background="new 0 0 24 24" height="512" viewBox="0 0 24 24" width="512" xmlns="http://www.w3.org/2000/svg">
    <path d="m12 7c-1.93 0-3.5-1.57-3.5-3.5s1.57-3.5 3.5-3.5 3.5 1.57 3.5 3.5-1.57 3.5-3.5 3.5zm0-5.5c-1.103 0-2 .897-2 2s.897 2 2 2 2-.897 2-2-.897-2-2-2z"
          fill="#546e7a"/>
    <path d="m22.052 24h-20.104c-.52 0-1.011-.229-1.344-.629-.333-.399-.471-.922-.378-1.434l2.636-14.5c.152-.833.876-1.437 1.722-1.437h14.831c.846 0 1.57.604 1.722 1.437l2.636 14.5c.093.512-.044 1.034-.378 1.434-.333.4-.823.629-1.343.629z"
          fill="#b0bec5"/>
    <path d="m12 0c-1.93 0-3.5 1.57-3.5 3.5 0 .978.404 1.864 1.053 2.5h2.447v-.5c-1.103 0-2-.897-2-2s.897-2 2-2z"
          fill="#49606a"/>
    <path d="m12 6h-2.447-4.969c-.846 0-1.57.604-1.722 1.437l-2.636 14.5c-.093.512.044 1.034.378 1.434s.824.629 1.344.629h10.052z"
          fill="#99a5ac"/>
    <g fill="#546e7a">
        <path d="m6.75 19c-.414 0-.75-.336-.75-.75v-6.5c0-.414.336-.75.75-.75s.75.336.75.75v6.5c0 .414-.336.75-.75.75z"/>
        <path d="m15.5 19c-1.378 0-2.5-1.121-2.5-2.5v-3c0-1.378 1.122-2.5 2.5-2.5s2.5 1.122 2.5 2.5v.25c0 .414-.336.75-.75.75s-.75-.336-.75-.75v-.25c0-.551-.449-1-1-1s-1 .449-1 1v3c0 .551.449 1 1 1s1-.449 1-1h-.75c-.414 0-.75-.336-.75-.75s.336-.75.75-.75h1.5c.414 0 .75.336.75.75v.75c0 1.379-1.122 2.5-2.5 2.5z"/>
        <path d="m10.25 19.063c-.185 0-.371-.068-.516-.205l-3.5-3.312c-.15-.144-.235-.343-.234-.55s.088-.404.24-.546l3.5-3.25c.304-.282.778-.264 1.06.04.282.303.264.778-.04 1.06l-2.914 2.706 2.919 2.762c.301.285.314.76.029 1.061-.147.155-.345.234-.544.234z"/>
    </g>
    <g fill="#49606a">
        <path d="m6 15.003v3.247c0 .414.336.75.75.75s.75-.336.75-.75v-1.507l-1.266-1.198c-.148-.141-.233-.338-.234-.542z"/>
        <path d="m17.25 15h-1.5c-.414 0-.75.336-.75.75s.336.75.75.75h.75c0 .551-.449 1-1 1s-1-.449-1-1v-1.5h-1.5v1.5c0 1.379 1.122 2.5 2.5 2.5s2.5-1.121 2.5-2.5v-.75c0-.414-.336-.75-.75-.75z"/>
        <path d="m7.853 15h-1.853v.003c.001.205.086.401.234.542l1.266 1.198 2.234 2.115c.145.137.331.205.516.205.199 0 .397-.078.545-.234.285-.301.271-.775-.029-1.061l-2.919-2.762z"/>
    </g>
</svg>