<svg height="512" viewBox="0 0 512 512" width="512" xmlns="http://www.w3.org/2000/svg">
    <g id="Fill_out_line" data-name="Fill out line">
        <path d="m440 56v288h-224c-26.51 0-48-64.47-48-144s21.49-144 48-144z" fill="#a0eaff"/>
        <path d="m368 200h72v144h-72z" fill="#3d9de6"/>
        <ellipse cx="440" cy="200" fill="#65dcff" rx="48" ry="144"/>
        <ellipse cx="440" cy="200" fill="#bc8d5d" rx="16" ry="40"/>
        <path d="m168 200h224a0 0 0 0 1 0 0v176a24 24 0 0 1 -24 24h-200a0 0 0 0 1 0 0v-200a0 0 0 0 1 0 0z"
              fill="#a0eaff"/>
        <path d="m136 320h184a24 24 0 0 1 24 24v32a24 24 0 0 0 24 24h-232z" fill="#57c1ff"/>
        <path d="m320 320a24 24 0 0 0 -24 24v88a24 24 0 0 1 -24 24h-200v-112a24 24 0 0 1 24-24z" fill="#65dcff"/>
        <path d="m248 432a24 24 0 0 0 24 24h-224a24 24 0 0 1 -24-24v-24h224z" fill="#a0eaff"/>
        <path d="m421.2583 168.74414c-3.39062 8.47754-5.2583 19.57813-5.2583 31.25586s1.86768 22.77832 5.2583 31.25586c5.82813 14.56836 14.2437 16.74414 18.7417 16.74414s12.91357-2.17578 18.7417-16.74414c3.39062-8.47754 5.2583-19.57813 5.2583-31.25586s-1.86768-22.77832-5.2583-31.25586c-5.82813-14.56836-14.24365-16.74414-18.7417-16.74414s-12.91357 2.17578-18.7417 16.74414zm26.7417 31.25586c0 18.77734-5.38184 29.73926-8 31.7998-2.61816-2.06054-8-13.02246-8-31.7998s5.38184-29.73926 8-31.7998c2.61816 2.06054 8 13.02246 8 31.7998z"/>
        <path d="m208 256h16v16h-16z"/>
        <path d="m240 256h16v16h-16z"/>
        <path d="m272 256h16v16h-16z"/>
        <path d="m304 256h16v16h-16z"/>
        <path d="m336 256h16v16h-16z"/>
        <path d="m481.53076 95.64648c-13.12695-39.37988-29.83008-47.64648-41.53076-47.64648h-224c-11.70068 0-28.40381 8.2666-41.53076 47.64648-9.33057 27.99219-14.46924 65.05176-14.46924 104.35352v112h-64a32.03635 32.03635 0 0 0 -32 32v56h-40a8.00008 8.00008 0 0 0 -8 8v24a32.03635 32.03635 0 0 0 32 32h224a32.03635 32.03635 0 0 0 32-32v-24h64a32.03635 32.03635 0 0 0 32-32v-24h40c11.70068 0 28.40381-8.2666 41.53076-47.64648 9.33057-27.99219 14.46924-65.05274 14.46924-104.35352s-5.13867-76.36133-14.46924-104.35352zm-433.53076 352.35352a16.01833 16.01833 0 0 1 -16-16v-16h208v16a31.80747 31.80747 0 0 0 4.29443 16zm240-104v16h-16v16h16v56a16 16 0 0 1 -32 0v-24a8.00008 8.00008 0 0 0 -8-8h-168v-24h16v-16h-16v-16a16.01833 16.01833 0 0 1 16-16h196.29443a31.80747 31.80747 0 0 0 -4.29443 16zm16 48v-48a16 16 0 0 1 32 0v32a31.80747 31.80747 0 0 0 4.29443 16zm88-312v16h6.35693c-9.25756 27.95117-14.35693 64.86133-14.35693 104v56h-16v16h16v104a16 16 0 0 1 -32 0v-32a32.03635 32.03635 0 0 0 -32-32h-144v-40h16v-16h-16v-56c0-44.84473 6.5993-80.47583 15.29108-104h24.70892v-16h-17.49695c5.83911-10.44067 12.02228-16 17.49695-16h197.75659a90.35294 90.35294 0 0 0 -9.18384 16zm8 256v-27.25757c4.342 12.00611 9.02417 20.83179 13.75659 27.25757zm40 0c-16.70264 0-40-51.73926-40-136s23.29736-136 40-136 40 51.73926 40 136-23.29736 136-40 136z"/>
        <path d="m112 360h16v16h-16z"/>
        <path d="m144 360h16v16h-16z"/>
        <path d="m176 360h16v16h-16z"/>
        <path d="m208 360h16v16h-16z"/>
        <path d="m240 360h16v16h-16z"/>
        <path d="m232 80h16v16h-16z"/>
        <path d="m264 80h16v16h-16z"/>
        <path d="m296 80h16v16h-16z"/>
        <path d="m328 80h16v16h-16z"/>
        <path d="m360 80h16v16h-16z"/>
    </g>
</svg>