<svg height="495pt" viewBox="0 -10 495.99979 495" width="495pt" xmlns="http://www.w3.org/2000/svg">
    <path d="m215.167969 118.878906c-11.320313-2.546875-22.824219-4.207031-34.402344-4.960937l-60.160156 96.480469s28.160156 5.917968 32.960937 7.359374c55.792969 16.148438 100.652344 57.746094 120.960938 112.160157 2.078125 5.597656 9.121094 31.359375 9.121094 31.359375l98.398437-53.121094c-1.0625-11.183594-3.042969-22.261719-5.921875-33.121094-20.445312-77.929687-82.445312-138.078125-160.957031-156.15625zm0 0"
          fill="#ffcb5a"/>
    <path d="m56.480469 476.300781c-20.363281-.027343-39.140625-11.003906-49.160157-28.730469-10.019531-17.726562-9.734374-39.472656.742188-56.933593l235.199219-376.496094c18.210937-18.1875 47.710937-18.1875 65.921875 0l32.382812 32.480469-22.589844 22.65625-32.480468-32.480469c-5.300782-5.300781-13.753906-5.738281-19.570313-1.007813l-231.566406 371.550782c-5.507813 9.433594-4.132813 21.367187 3.378906 29.296875 7.511719 7.929687 19.351563 9.949219 29.070313 4.960937l393.183594-212.320312c4.4375-5.820313 3.890624-14.023438-1.28125-19.199219l-32.464844-32.480469 22.625-22.625 32.480468 32.480469c18.199219 18.210937 18.199219 47.722656 0 65.9375l-3.710937 2.765625-395.921875 213.761719c-8.117188 4.175781-17.109375 6.363281-26.238281 6.382812zm0 0"
          fill="#77959e"/>
    <g fill="#fba61f">
        <path d="m330.527344 188.636719-43.039063 43.039062-22.5625-22.71875 42.882813-42.878906c8.273437 6.777344 15.878906 14.332031 22.71875 22.558594zm0 0"/>
        <path d="m364.285156 241.4375-44.320312 44.320312-22.71875-22.5625 51.039062-51.039062c6.203125 9.261719 11.558594 19.058594 16 29.28125zm0 0"/>
        <path d="m284.285156 148.316406-50.878906 50.878906-22.71875-22.71875 44.160156-44.160156c10.269532 4.441406 20.125 9.796875 29.4375 16zm0 0"/>
    </g>
</svg>