<svg id="svg" version="1.1" xmlns="http://www.w3.org/2000/svg" xmlns:xlink="http://www.w3.org/1999/xlink" width="400"
     height="400" viewBox="0, 0, 400,400">
    <g id="svgg">
        <path id="path0"
              d="M193.934 146.387 C 190.400 147.732,188.200 149.815,186.523 153.400 L 185.400 155.800 185.283 189.187 C 185.160 223.976,185.263 226.643,186.839 229.492 C 192.845 240.356,211.321 238.475,214.316 226.694 C 214.973 224.108,215.015 157.584,214.360 155.560 C 211.686 147.286,202.457 143.141,193.934 146.387 M195.600 259.180 C 195.270 259.363,194.117 259.935,193.038 260.451 C 178.610 267.351,186.778 290.891,202.475 287.649 C 215.782 284.900,219.303 266.746,207.689 260.763 C 207.090 260.454,206.510 260.110,206.400 259.999 C 205.368 258.952,197.135 258.328,195.600 259.180 "
              stroke="none" fill="#fcf3db" fill-rule="evenodd"></path>
        <path id="path1"
              d="M198.000 70.400 C 198.000 70.620,197.158 70.800,196.128 70.800 C 194.342 70.800,192.203 71.293,190.705 72.049 C 190.323 72.242,189.738 72.400,189.405 72.400 C 189.072 72.400,188.800 72.580,188.800 72.800 C 188.800 73.020,188.564 73.200,188.275 73.200 C 187.987 73.200,187.397 73.515,186.963 73.900 C 186.530 74.285,185.629 74.906,184.961 75.279 C 183.621 76.029,180.483 79.063,179.700 80.367 C 179.425 80.825,178.975 81.605,178.700 82.100 C 178.425 82.595,178.110 83.090,178.000 83.200 C 177.565 83.635,176.206 86.576,176.300 86.878 C 176.355 87.055,176.211 87.200,175.979 87.200 C 175.748 87.200,175.370 87.740,175.140 88.400 C 174.910 89.060,174.559 89.600,174.361 89.600 C 174.162 89.600,174.000 89.960,174.000 90.400 C 174.000 90.840,173.820 91.200,173.600 91.200 C 173.380 91.200,173.200 91.436,173.200 91.725 C 173.200 92.013,172.840 92.636,172.400 93.108 C 171.960 93.580,171.600 94.154,171.600 94.383 C 171.600 94.612,171.420 94.800,171.200 94.800 C 170.980 94.800,170.800 95.034,170.800 95.320 C 170.800 96.056,169.859 97.993,169.500 97.997 C 169.335 97.999,169.200 98.270,169.200 98.600 C 169.200 98.930,169.020 99.200,168.800 99.200 C 168.580 99.200,168.400 99.470,168.400 99.800 C 168.400 100.130,168.220 100.400,168.000 100.400 C 167.780 100.400,167.600 100.760,167.600 101.200 C 167.600 101.640,167.420 102.000,167.200 102.000 C 166.980 102.000,166.800 102.320,166.800 102.712 C 166.800 103.103,166.440 103.683,166.000 104.000 C 165.560 104.317,165.200 104.809,165.200 105.094 C 165.200 105.630,164.390 107.250,163.947 107.600 C 163.570 107.898,161.600 111.293,161.336 112.100 C 161.210 112.485,160.948 112.800,160.753 112.800 C 160.559 112.800,160.400 113.138,160.400 113.551 C 160.400 113.964,160.130 114.526,159.800 114.800 C 159.470 115.074,159.200 115.636,159.200 116.049 C 159.200 116.462,159.020 116.800,158.800 116.800 C 158.580 116.800,158.400 117.078,158.400 117.417 C 158.400 117.756,158.040 118.420,157.600 118.892 C 157.160 119.364,156.800 119.987,156.800 120.275 C 156.800 120.564,156.620 120.800,156.400 120.800 C 156.180 120.800,156.000 121.160,156.000 121.600 C 156.000 122.040,155.820 122.400,155.600 122.400 C 155.380 122.400,155.200 122.720,155.200 123.112 C 155.200 123.503,154.840 124.083,154.400 124.400 C 153.960 124.717,153.600 125.297,153.600 125.688 C 153.600 126.080,153.420 126.400,153.200 126.400 C 152.980 126.400,152.800 126.771,152.800 127.224 C 152.800 127.677,152.620 127.936,152.400 127.800 C 152.180 127.664,152.000 127.799,152.000 128.101 C 152.000 128.402,151.640 129.036,151.200 129.508 C 150.760 129.980,150.400 130.644,150.400 130.983 C 150.400 131.322,150.220 131.600,150.000 131.600 C 149.780 131.600,149.600 131.960,149.600 132.400 C 149.600 132.840,149.420 133.200,149.200 133.200 C 148.980 133.200,148.800 133.470,148.800 133.800 C 148.800 134.130,148.665 134.401,148.500 134.401 C 148.335 134.402,147.750 135.392,147.200 136.600 C 146.650 137.808,146.092 138.798,145.960 138.799 C 145.828 138.799,145.126 139.971,144.399 141.401 C 143.673 142.832,142.836 144.204,142.540 144.450 C 142.243 144.696,142.000 145.148,142.000 145.454 C 142.000 146.067,141.265 147.479,140.526 148.287 C 140.266 148.572,139.938 149.164,139.799 149.602 C 139.660 150.041,139.378 150.400,139.173 150.400 C 138.968 150.400,138.800 150.760,138.800 151.200 C 138.800 151.640,138.620 152.000,138.400 152.000 C 138.180 152.000,138.000 152.278,138.000 152.617 C 138.000 152.956,137.640 153.620,137.200 154.092 C 136.760 154.564,136.400 155.187,136.400 155.475 C 136.400 155.764,136.220 156.000,136.000 156.000 C 135.780 156.000,135.600 156.360,135.600 156.800 C 135.600 157.240,135.420 157.600,135.200 157.600 C 134.980 157.600,134.800 157.920,134.800 158.312 C 134.800 158.703,134.440 159.283,134.000 159.600 C 133.560 159.917,133.200 160.407,133.200 160.688 C 133.200 160.970,133.009 161.200,132.776 161.200 C 132.543 161.200,132.455 161.365,132.580 161.568 C 132.705 161.770,132.581 162.180,132.304 162.480 C 131.615 163.225,130.399 165.248,130.129 166.100 C 130.007 166.485,129.748 166.800,129.553 166.800 C 129.359 166.800,129.200 167.160,129.200 167.600 C 129.200 168.040,129.051 168.400,128.868 168.400 C 128.686 168.400,128.115 169.300,127.600 170.400 C 127.085 171.500,126.484 172.400,126.265 172.400 C 126.046 172.400,125.983 172.517,126.126 172.659 C 126.397 172.930,124.821 176.102,124.300 176.333 C 124.135 176.407,124.000 176.822,124.000 177.257 C 124.000 177.692,123.820 177.936,123.600 177.800 C 123.380 177.664,123.200 177.923,123.200 178.376 C 123.200 178.829,123.020 179.200,122.800 179.200 C 122.580 179.200,122.400 179.481,122.400 179.824 C 122.400 180.167,122.220 180.336,122.000 180.200 C 121.780 180.064,121.600 180.198,121.600 180.497 C 121.600 181.251,120.665 183.193,120.300 183.197 C 120.135 183.199,120.000 183.470,120.000 183.800 C 120.000 184.130,119.820 184.400,119.600 184.400 C 119.380 184.400,119.200 184.670,119.200 185.000 C 119.200 185.330,119.020 185.600,118.800 185.600 C 118.580 185.600,118.400 185.960,118.400 186.400 C 118.400 186.840,118.220 187.200,118.000 187.200 C 117.780 187.200,117.600 187.560,117.600 188.000 C 117.600 188.440,117.442 188.800,117.249 188.800 C 117.055 188.800,116.673 189.340,116.400 190.000 C 116.127 190.660,115.745 191.200,115.551 191.200 C 115.358 191.200,115.200 191.560,115.200 192.000 C 115.200 192.440,115.020 192.800,114.800 192.800 C 114.580 192.800,114.400 193.036,114.400 193.325 C 114.400 193.613,114.085 194.198,113.699 194.625 C 113.314 195.051,112.552 196.300,112.005 197.400 C 111.458 198.500,110.903 199.490,110.770 199.600 C 110.638 199.710,109.830 201.150,108.974 202.800 C 108.119 204.450,107.280 205.860,107.109 205.933 C 106.939 206.007,106.800 206.412,106.800 206.833 C 106.800 207.255,106.620 207.600,106.400 207.600 C 106.180 207.600,106.000 207.990,106.000 208.467 C 106.000 208.943,105.885 209.218,105.744 209.077 C 105.492 208.825,104.692 210.055,103.324 212.800 C 102.940 213.570,102.305 214.549,101.913 214.975 C 101.521 215.402,101.200 215.987,101.200 216.275 C 101.200 216.564,101.020 216.800,100.800 216.800 C 100.580 216.800,100.400 217.160,100.400 217.600 C 100.400 218.040,100.220 218.400,100.000 218.400 C 99.780 218.400,99.600 218.678,99.600 219.017 C 99.600 219.356,99.240 220.020,98.800 220.492 C 98.360 220.964,98.000 221.587,98.000 221.875 C 98.000 222.164,97.820 222.400,97.600 222.400 C 97.380 222.400,97.200 222.760,97.200 223.200 C 97.200 223.640,97.020 224.000,96.800 224.000 C 96.580 224.000,96.400 224.270,96.400 224.600 C 96.400 224.930,96.241 225.200,96.047 225.200 C 95.852 225.200,95.593 225.515,95.471 225.900 C 95.202 226.749,93.986 228.774,93.300 229.516 C 92.828 230.027,92.645 230.621,92.753 231.300 C 92.779 231.465,92.620 231.600,92.400 231.600 C 92.180 231.600,92.000 231.960,92.000 232.400 C 92.000 232.840,91.820 233.200,91.600 233.200 C 91.380 233.200,91.200 233.520,91.200 233.912 C 91.200 234.303,90.840 234.883,90.400 235.200 C 89.960 235.517,89.600 236.097,89.600 236.488 C 89.600 236.880,89.420 237.200,89.200 237.200 C 88.980 237.200,88.800 237.560,88.800 238.000 C 88.800 238.440,88.648 238.800,88.463 238.800 C 88.277 238.800,87.692 239.655,87.163 240.700 C 86.633 241.745,86.065 242.660,85.900 242.733 C 85.735 242.807,85.600 243.122,85.600 243.433 C 85.600 243.745,85.420 244.000,85.200 244.000 C 84.980 244.000,84.800 244.236,84.800 244.525 C 84.800 244.813,84.440 245.436,84.000 245.908 C 83.560 246.380,83.200 247.044,83.200 247.383 C 83.200 247.722,83.020 248.000,82.800 248.000 C 82.580 248.000,82.400 248.261,82.400 248.580 C 82.400 248.899,81.887 249.934,81.260 250.880 C 80.634 251.826,79.870 253.185,79.563 253.900 C 79.256 254.615,78.869 255.200,78.702 255.200 C 78.536 255.200,78.400 255.470,78.400 255.800 C 78.400 256.130,78.265 256.402,78.100 256.405 C 77.935 256.407,77.441 257.172,77.001 258.105 C 76.562 259.037,75.887 260.149,75.501 260.575 C 75.116 261.002,74.800 261.551,74.800 261.796 C 74.800 262.473,73.840 264.393,73.500 264.397 C 73.335 264.399,73.200 264.670,73.200 265.000 C 73.200 265.330,73.020 265.600,72.800 265.600 C 72.580 265.600,72.400 265.870,72.400 266.200 C 72.400 266.530,72.220 266.800,72.000 266.800 C 71.780 266.800,71.600 267.160,71.600 267.600 C 71.600 268.040,71.420 268.400,71.200 268.400 C 70.980 268.400,70.800 268.678,70.800 269.017 C 70.800 269.356,70.440 270.020,70.000 270.492 C 69.560 270.964,69.200 271.587,69.200 271.875 C 69.200 272.164,69.020 272.400,68.800 272.400 C 68.580 272.400,68.400 272.760,68.400 273.200 C 68.400 273.640,68.220 274.000,68.000 274.000 C 67.780 274.000,67.600 274.270,67.600 274.600 C 67.600 274.930,67.420 275.200,67.200 275.200 C 66.980 275.200,66.800 275.470,66.800 275.800 C 66.800 276.130,66.620 276.400,66.400 276.400 C 66.180 276.400,66.000 276.670,66.000 277.000 C 66.000 277.330,65.820 277.600,65.600 277.600 C 65.380 277.600,65.200 277.960,65.200 278.400 C 65.200 278.840,65.064 279.200,64.898 279.200 C 64.731 279.200,64.341 279.785,64.030 280.500 C 63.719 281.215,63.352 281.890,63.214 282.000 C 60.537 284.141,57.742 297.873,59.190 301.771 C 59.359 302.227,59.715 303.320,59.981 304.200 C 60.563 306.129,62.084 309.348,62.500 309.533 C 62.665 309.607,62.800 309.925,62.800 310.240 C 62.800 310.954,68.597 316.800,69.305 316.800 C 69.590 316.800,70.083 317.160,70.400 317.600 C 70.717 318.040,71.297 318.400,71.688 318.400 C 72.080 318.400,72.400 318.580,72.400 318.800 C 72.400 319.020,72.760 319.200,73.200 319.200 C 73.640 319.200,74.000 319.380,74.000 319.600 C 74.000 319.820,74.439 320.000,74.976 320.000 C 75.513 320.000,76.064 320.180,76.200 320.400 C 76.336 320.620,77.211 320.800,78.144 320.800 C 79.077 320.800,80.020 320.980,80.240 321.200 C 81.234 322.194,323.600 321.359,323.600 320.361 C 323.600 320.163,324.140 320.000,324.800 320.000 C 325.460 320.000,326.000 319.820,326.000 319.600 C 326.000 319.380,326.360 319.200,326.800 319.200 C 327.240 319.200,327.600 319.020,327.600 318.800 C 327.600 318.580,327.960 318.400,328.400 318.400 C 328.840 318.400,329.200 318.250,329.200 318.068 C 329.200 317.885,329.692 317.480,330.292 317.168 C 331.602 316.487,336.945 311.182,337.132 310.376 C 337.205 310.063,337.395 309.716,337.555 309.604 C 340.440 307.584,342.428 290.501,339.956 288.973 C 339.760 288.852,339.600 288.475,339.600 288.134 C 339.600 287.794,339.157 286.635,338.617 285.558 C 338.076 284.481,337.761 283.597,337.917 283.594 C 338.072 283.591,338.020 283.456,337.800 283.294 C 337.302 282.928,336.026 280.837,335.729 279.900 C 335.607 279.515,335.348 279.200,335.153 279.200 C 334.959 279.200,334.800 278.930,334.800 278.600 C 334.800 278.270,334.440 277.640,334.000 277.200 C 333.560 276.760,333.200 276.130,333.200 275.800 C 333.200 275.470,333.020 275.200,332.800 275.200 C 332.580 275.200,332.400 274.930,332.400 274.600 C 332.400 274.270,332.220 274.000,332.000 274.000 C 331.780 274.000,331.600 273.640,331.600 273.200 C 331.600 272.760,331.420 272.400,331.200 272.400 C 330.980 272.400,330.800 272.164,330.800 271.875 C 330.800 271.587,330.440 270.964,330.000 270.492 C 329.560 270.020,329.200 269.356,329.200 269.017 C 329.200 268.678,329.020 268.400,328.800 268.400 C 328.580 268.400,328.400 268.040,328.400 267.600 C 328.400 267.160,328.220 266.800,328.000 266.800 C 327.780 266.800,327.600 266.519,327.600 266.176 C 327.600 265.833,327.420 265.664,327.200 265.800 C 326.980 265.936,326.800 265.677,326.800 265.224 C 326.800 264.771,326.620 264.400,326.400 264.400 C 326.180 264.400,326.000 264.055,326.000 263.633 C 326.000 263.212,325.865 262.807,325.700 262.733 C 325.535 262.660,325.091 261.970,324.714 261.200 C 323.440 258.600,321.524 255.401,321.161 255.267 C 320.962 255.193,320.800 254.788,320.800 254.367 C 320.800 253.945,320.665 253.597,320.500 253.594 C 320.335 253.590,319.760 252.690,319.221 251.594 C 318.683 250.497,318.098 249.600,317.921 249.600 C 317.745 249.600,317.600 249.240,317.600 248.800 C 317.600 248.360,317.420 248.000,317.200 248.000 C 316.980 248.000,316.800 247.722,316.800 247.383 C 316.800 247.044,316.440 246.380,316.000 245.908 C 315.560 245.436,315.200 244.813,315.200 244.525 C 315.200 244.236,315.020 244.000,314.800 244.000 C 314.580 244.000,314.400 243.730,314.400 243.400 C 314.400 243.070,314.220 242.800,314.000 242.800 C 313.780 242.800,313.600 242.440,313.600 242.000 C 313.600 241.560,313.420 241.200,313.200 241.200 C 312.980 241.200,312.800 240.964,312.800 240.675 C 312.800 240.387,312.440 239.764,312.000 239.292 C 311.560 238.820,311.200 238.156,311.200 237.817 C 311.200 237.478,311.020 237.200,310.800 237.200 C 310.580 237.200,310.400 236.964,310.400 236.675 C 310.400 236.387,310.061 235.787,309.646 235.342 C 309.232 234.897,308.765 233.951,308.609 233.239 C 308.452 232.528,308.073 231.849,307.765 231.731 C 307.457 231.613,307.301 231.360,307.419 231.169 C 307.537 230.978,307.266 230.507,306.817 230.122 C 306.368 229.737,306.000 229.228,306.000 228.991 C 306.000 228.324,305.037 226.407,304.700 226.403 C 304.535 226.401,304.400 226.175,304.400 225.900 C 304.399 225.625,303.953 224.882,303.408 224.248 C 302.863 223.614,302.514 222.939,302.632 222.748 C 302.750 222.557,302.657 222.400,302.424 222.400 C 302.191 222.400,302.000 222.080,302.000 221.688 C 302.000 221.297,301.640 220.717,301.200 220.400 C 300.760 220.083,300.400 219.503,300.400 219.112 C 300.400 218.720,300.220 218.400,300.000 218.400 C 299.780 218.400,299.600 218.040,299.600 217.600 C 299.600 217.160,299.420 216.800,299.200 216.800 C 298.980 216.800,298.800 216.564,298.800 216.275 C 298.800 215.987,298.440 215.364,298.000 214.892 C 297.560 214.420,297.200 213.756,297.200 213.417 C 297.200 213.078,297.020 212.800,296.800 212.800 C 296.580 212.800,296.400 212.440,296.400 212.000 C 296.400 211.560,296.220 211.200,296.000 211.200 C 295.780 211.200,295.600 210.930,295.600 210.600 C 295.600 210.270,295.420 210.000,295.200 210.000 C 294.980 210.000,294.800 209.719,294.800 209.376 C 294.800 209.033,294.620 208.864,294.400 209.000 C 294.180 209.136,294.000 208.877,294.000 208.424 C 294.000 207.971,293.820 207.600,293.600 207.600 C 293.380 207.600,293.200 207.229,293.200 206.776 C 293.200 206.323,293.020 206.064,292.800 206.200 C 292.573 206.340,292.400 206.004,292.400 205.424 C 292.400 204.861,292.253 204.400,292.074 204.400 C 291.894 204.400,291.231 203.320,290.600 202.000 C 289.969 200.680,289.306 199.600,289.126 199.600 C 288.947 199.600,288.800 199.240,288.800 198.800 C 288.800 198.360,288.664 198.000,288.498 198.000 C 288.331 198.000,287.936 197.415,287.620 196.700 C 287.303 195.985,286.720 195.051,286.322 194.625 C 285.925 194.198,285.600 193.613,285.600 193.325 C 285.600 193.036,285.420 192.800,285.200 192.800 C 284.980 192.800,284.800 192.440,284.800 192.000 C 284.800 191.560,284.620 191.200,284.400 191.200 C 284.180 191.200,284.000 190.880,284.000 190.488 C 284.000 190.097,283.640 189.517,283.200 189.200 C 282.760 188.883,282.400 188.303,282.400 187.912 C 282.400 187.520,282.254 187.200,282.075 187.200 C 281.896 187.200,281.502 186.570,281.200 185.800 C 280.898 185.030,280.504 184.400,280.325 184.400 C 280.146 184.400,280.000 184.130,280.000 183.800 C 280.000 183.470,279.820 183.200,279.600 183.200 C 279.380 183.200,279.200 182.840,279.200 182.400 C 279.200 181.960,279.020 181.600,278.800 181.600 C 278.580 181.600,278.400 181.280,278.400 180.888 C 278.400 180.497,278.040 179.917,277.600 179.600 C 277.160 179.283,276.800 178.703,276.800 178.312 C 276.800 177.920,276.620 177.600,276.400 177.600 C 276.180 177.600,276.000 177.330,276.000 177.000 C 276.000 176.670,275.820 176.400,275.600 176.400 C 275.380 176.400,275.200 176.053,275.200 175.629 C 275.200 175.204,274.930 174.587,274.600 174.257 C 274.270 173.927,274.000 173.374,274.000 173.029 C 274.000 172.683,273.841 172.400,273.647 172.400 C 273.452 172.400,273.193 172.085,273.071 171.700 C 272.854 171.015,271.596 168.796,271.200 168.400 C 271.000 168.200,269.469 165.390,268.640 163.703 C 268.398 163.210,268.065 162.805,267.900 162.803 C 267.735 162.801,267.600 162.532,267.600 162.205 C 267.600 161.657,266.970 160.722,265.700 159.384 C 265.425 159.094,265.200 158.574,265.200 158.229 C 265.200 157.883,265.020 157.600,264.800 157.600 C 264.580 157.600,264.400 157.240,264.400 156.800 C 264.400 156.360,264.220 156.000,264.000 156.000 C 263.780 156.000,263.600 155.764,263.600 155.475 C 263.600 155.187,263.240 154.564,262.800 154.092 C 262.360 153.620,262.000 152.956,262.000 152.617 C 262.000 152.278,261.820 152.000,261.600 152.000 C 261.380 152.000,261.200 151.640,261.200 151.200 C 261.200 150.760,261.020 150.400,260.800 150.400 C 260.580 150.400,260.400 150.164,260.400 149.875 C 260.400 149.587,260.040 148.964,259.600 148.492 C 259.160 148.020,258.800 147.369,258.800 147.045 C 258.800 146.722,258.517 146.174,258.171 145.829 C 257.826 145.483,257.655 145.200,257.792 145.200 C 257.929 145.200,257.582 144.598,257.020 143.862 C 256.459 143.126,256.000 142.226,256.000 141.862 C 256.000 141.498,255.842 141.200,255.649 141.200 C 255.455 141.200,255.073 140.660,254.800 140.000 C 254.527 139.340,254.145 138.800,253.951 138.800 C 253.758 138.800,253.600 138.440,253.600 138.000 C 253.600 137.560,253.420 137.200,253.200 137.200 C 252.980 137.200,252.800 136.922,252.800 136.583 C 252.800 136.244,252.440 135.580,252.000 135.108 C 251.560 134.636,251.200 134.013,251.200 133.725 C 251.200 133.436,251.020 133.200,250.800 133.200 C 250.580 133.200,250.400 132.840,250.400 132.400 C 250.400 131.960,250.220 131.600,250.000 131.600 C 249.780 131.600,249.600 131.322,249.600 130.983 C 249.600 130.644,249.240 129.980,248.800 129.508 C 248.360 129.036,248.000 128.413,248.000 128.125 C 248.000 127.836,247.820 127.600,247.600 127.600 C 247.380 127.600,247.200 127.330,247.200 127.000 C 247.200 126.670,247.020 126.400,246.800 126.400 C 246.580 126.400,246.400 126.080,246.400 125.688 C 246.400 125.297,246.040 124.717,245.600 124.400 C 245.160 124.083,244.800 123.503,244.800 123.112 C 244.800 122.720,244.620 122.400,244.400 122.400 C 244.180 122.400,244.000 122.040,244.000 121.600 C 244.000 121.160,243.820 120.800,243.600 120.800 C 243.380 120.800,243.200 120.480,243.200 120.088 C 243.200 119.697,242.840 119.117,242.400 118.800 C 241.960 118.483,241.600 117.928,241.600 117.568 C 241.600 117.207,241.150 116.249,240.600 115.438 C 240.050 114.628,239.600 113.722,239.600 113.425 C 239.600 113.128,239.304 112.772,238.943 112.633 C 238.581 112.495,238.396 112.271,238.531 112.136 C 238.666 112.001,238.460 111.420,238.074 110.845 C 237.687 110.270,237.122 109.305,236.818 108.700 C 236.514 108.095,236.115 107.600,235.932 107.600 C 235.750 107.600,235.600 107.240,235.600 106.800 C 235.600 106.360,235.420 106.000,235.200 106.000 C 234.980 106.000,234.800 105.764,234.800 105.475 C 234.800 105.187,234.440 104.564,234.000 104.092 C 233.560 103.620,233.200 102.956,233.200 102.617 C 233.200 102.278,233.020 102.000,232.800 102.000 C 232.580 102.000,232.400 101.640,232.400 101.200 C 232.400 100.760,232.220 100.400,232.000 100.400 C 231.780 100.400,231.600 100.164,231.600 99.875 C 231.600 99.587,231.240 98.964,230.800 98.492 C 230.360 98.020,230.000 97.356,230.000 97.017 C 230.000 96.678,229.820 96.400,229.600 96.400 C 229.380 96.400,229.200 96.122,229.200 95.783 C 229.200 95.444,228.840 94.780,228.400 94.308 C 227.960 93.836,227.376 92.944,227.103 92.325 C 226.829 91.706,226.469 91.200,226.302 91.200 C 226.136 91.200,226.000 90.840,226.000 90.400 C 226.000 89.960,225.834 89.600,225.632 89.600 C 225.429 89.600,225.145 89.060,225.000 88.400 C 224.855 87.740,224.602 87.200,224.437 87.200 C 224.272 87.200,223.715 86.300,223.200 85.200 C 222.685 84.100,222.135 83.200,221.978 83.200 C 221.822 83.200,221.593 82.885,221.471 82.500 C 220.844 80.521,216.458 75.600,215.322 75.600 C 215.009 75.600,214.864 75.420,215.000 75.200 C 215.136 74.980,214.916 74.800,214.512 74.800 C 214.107 74.800,213.517 74.440,213.200 74.000 C 212.883 73.560,212.303 73.200,211.912 73.200 C 211.520 73.200,211.200 73.020,211.200 72.800 C 211.200 72.580,210.851 72.400,210.424 72.400 C 209.997 72.400,209.536 72.220,209.400 72.000 C 209.264 71.780,208.724 71.600,208.200 71.600 C 207.676 71.600,207.136 71.420,207.000 71.200 C 206.864 70.980,205.683 70.800,204.376 70.800 C 203.059 70.800,202.000 70.622,202.000 70.400 C 202.000 70.180,201.100 70.000,200.000 70.000 C 198.900 70.000,198.000 70.180,198.000 70.400 M206.257 145.523 C 206.666 145.734,207.540 146.153,208.200 146.453 C 209.742 147.156,213.237 150.646,213.954 152.200 C 214.258 152.860,214.708 153.832,214.954 154.361 C 215.272 155.045,215.400 165.621,215.400 191.161 L 215.400 227.000 214.410 229.000 C 208.405 241.124,189.533 240.350,185.158 227.800 C 184.315 225.381,184.332 157.036,185.177 154.400 C 186.688 149.683,191.156 145.749,195.800 145.047 C 197.736 144.754,205.448 145.105,206.257 145.523 M204.100 258.216 C 204.925 258.365,205.600 258.648,205.600 258.844 C 205.600 259.040,205.960 259.200,206.400 259.200 C 206.840 259.200,207.200 259.380,207.200 259.600 C 207.200 259.820,207.481 260.000,207.825 260.000 C 208.168 260.000,209.494 261.038,210.770 262.307 C 222.586 274.049,210.175 293.366,194.496 287.635 C 186.391 284.673,182.196 274.726,185.795 267.004 C 186.951 264.523,191.094 260.000,192.210 260.000 C 192.535 260.000,192.800 259.820,192.800 259.600 C 192.800 259.380,193.160 259.200,193.600 259.200 C 194.040 259.200,194.400 259.020,194.400 258.800 C 194.400 258.580,194.895 258.397,195.500 258.394 C 196.105 258.391,196.870 258.206,197.200 257.983 C 197.796 257.580,201.232 257.696,204.100 258.216 "
              stroke="none" fill="#fcb404" fill-rule="evenodd"></path>
        <path id="path2"
              d="M184.893 157.600 C 184.893 158.370,184.975 158.685,185.076 158.300 C 185.176 157.915,185.176 157.285,185.076 156.900 C 184.975 156.515,184.893 156.830,184.893 157.600 M184.893 224.400 C 184.893 225.170,184.975 225.485,185.076 225.100 C 185.176 224.715,185.176 224.085,185.076 223.700 C 184.975 223.315,184.893 223.630,184.893 224.400 M198.512 237.095 C 199.564 237.177,201.184 237.176,202.112 237.092 C 203.040 237.008,202.180 236.941,200.200 236.942 C 198.220 236.943,197.460 237.012,198.512 237.095 M214.893 271.200 C 214.893 271.970,214.975 272.285,215.076 271.900 C 215.176 271.515,215.176 270.885,215.076 270.500 C 214.975 270.115,214.893 270.430,214.893 271.200 M184.928 273.200 C 184.928 274.630,185.001 275.215,185.089 274.500 C 185.178 273.785,185.178 272.615,185.089 271.900 C 185.001 271.185,184.928 271.770,184.928 273.200 M186.400 280.128 C 186.400 280.301,186.850 281.105,187.400 281.914 C 187.950 282.723,188.400 283.244,188.400 283.072 C 188.400 282.899,187.950 282.095,187.400 281.286 C 186.850 280.477,186.400 279.956,186.400 280.128 M210.575 284.100 L 209.400 285.400 210.700 284.225 C 211.415 283.579,212.000 282.994,212.000 282.925 C 212.000 282.616,211.670 282.888,210.575 284.100 "
              stroke="none" fill="#fcc641" fill-rule="evenodd"></path>
        <path id="path3"
              d="M198.300 145.093 C 199.235 145.177,200.765 145.177,201.700 145.093 C 202.635 145.009,201.870 144.940,200.000 144.940 C 198.130 144.940,197.365 145.009,198.300 145.093 M188.378 149.100 L 187.000 150.600 188.500 149.222 C 189.325 148.463,190.000 147.788,190.000 147.722 C 190.000 147.416,189.662 147.704,188.378 149.100 M211.200 149.000 C 211.946 149.770,212.647 150.400,212.757 150.400 C 212.867 150.400,212.346 149.770,211.600 149.000 C 210.854 148.230,210.153 147.600,210.043 147.600 C 209.933 147.600,210.454 148.230,211.200 149.000 M184.591 191.000 C 184.591 209.700,184.640 217.292,184.700 207.870 C 184.760 198.449,184.760 183.149,184.700 173.870 C 184.640 164.592,184.591 172.300,184.591 191.000 M215.391 191.000 C 215.391 209.700,215.440 217.292,215.500 207.870 C 215.560 198.449,215.560 183.149,215.500 173.870 C 215.440 164.592,215.391 172.300,215.391 191.000 M198.500 237.491 C 199.325 237.578,200.675 237.578,201.500 237.491 C 202.325 237.405,201.650 237.334,200.000 237.334 C 198.350 237.334,197.675 237.405,198.500 237.491 M197.338 257.906 C 197.084 258.068,198.282 258.200,200.000 258.200 C 201.718 258.200,202.916 258.068,202.662 257.906 C 202.062 257.525,197.938 257.525,197.338 257.906 M185.049 268.615 C 184.912 268.973,184.818 269.656,184.841 270.133 C 184.867 270.681,185.003 270.486,185.210 269.603 C 185.560 268.116,185.465 267.533,185.049 268.615 M184.509 273.200 C 184.509 274.190,184.587 274.595,184.682 274.100 C 184.778 273.605,184.778 272.795,184.682 272.300 C 184.587 271.805,184.509 272.210,184.509 273.200 M215.309 273.200 C 215.309 274.190,215.387 274.595,215.482 274.100 C 215.578 273.605,215.578 272.795,215.482 272.300 C 215.387 271.805,215.309 272.210,215.309 273.200 "
              stroke="none" fill="#fcc431" fill-rule="evenodd"></path>
        <path id="path4"
              d="M193.934 145.967 C 188.992 147.900,185.131 152.750,185.250 156.875 L 185.300 158.600 185.595 156.596 C 186.101 153.155,188.063 150.063,191.269 147.656 C 197.415 143.041,210.728 146.097,213.238 152.700 C 213.449 153.256,213.728 153.605,213.857 153.477 C 214.528 152.806,211.463 149.081,208.800 147.332 C 205.337 145.057,197.987 144.382,193.934 145.967 M214.034 154.400 C 214.046 154.730,214.211 155.360,214.400 155.800 L 214.744 156.600 214.766 155.800 C 214.778 155.360,214.613 154.730,214.400 154.400 C 214.055 153.867,214.015 153.867,214.034 154.400 M214.991 191.000 C 214.991 209.480,215.040 216.982,215.100 207.670 C 215.160 198.359,215.160 183.239,215.100 174.070 C 215.040 164.902,214.991 172.520,214.991 191.000 M184.991 191.000 C 184.991 208.820,185.040 216.168,185.100 207.330 C 185.160 198.491,185.160 183.911,185.100 174.930 C 185.040 165.948,184.991 173.180,184.991 191.000 M185.206 225.433 C 185.209 226.295,185.388 227.270,185.603 227.600 C 185.870 228.010,185.914 227.565,185.741 226.200 C 185.425 223.705,185.198 223.381,185.206 225.433 M214.200 226.800 C 214.048 227.491,214.014 228.147,214.124 228.257 C 214.234 228.367,214.448 227.891,214.600 227.200 C 214.752 226.509,214.786 225.853,214.676 225.743 C 214.566 225.633,214.352 226.109,214.200 226.800 M186.000 228.698 C 186.000 228.888,186.510 229.847,187.133 230.830 C 192.649 239.527,208.729 239.034,213.388 230.024 C 214.229 228.397,213.876 228.459,212.851 230.118 C 208.929 236.463,199.046 238.610,191.752 234.702 C 190.301 233.924,186.800 230.162,186.800 229.380 C 186.800 229.087,186.620 228.736,186.400 228.600 C 186.180 228.464,186.000 228.508,186.000 228.698 M197.400 258.361 C 193.990 258.974,189.953 261.375,188.321 263.758 C 187.677 264.700,187.906 264.564,189.267 263.198 C 190.829 261.631,192.202 260.778,195.828 259.120 C 196.723 258.711,203.566 258.882,205.200 259.355 C 205.897 259.556,205.826 259.470,204.966 259.069 C 203.418 258.348,199.507 257.982,197.400 258.361 M206.400 259.888 C 206.400 260.062,206.920 260.435,207.555 260.716 C 208.190 260.997,209.285 261.776,209.987 262.448 C 210.690 263.119,211.350 263.583,211.454 263.479 C 211.676 263.257,208.612 260.719,207.300 260.039 C 206.805 259.782,206.400 259.714,206.400 259.888 M212.629 265.815 C 213.235 266.901,213.971 268.601,214.264 269.594 C 214.784 271.356,214.793 271.363,214.622 269.891 C 214.432 268.250,212.976 265.044,212.084 264.304 C 211.778 264.050,212.023 264.730,212.629 265.815 M186.629 266.343 C 185.725 268.093,185.856 268.441,186.823 266.855 C 187.274 266.115,187.557 265.423,187.451 265.318 C 187.345 265.212,186.976 265.673,186.629 266.343 M185.449 269.015 C 185.312 269.373,185.222 270.416,185.250 271.333 C 185.298 272.931,185.313 272.910,185.618 270.802 C 185.947 268.534,185.885 267.881,185.449 269.015 M185.206 275.233 C 185.209 276.205,185.385 277.270,185.596 277.600 C 185.852 278.001,185.898 277.470,185.734 276.000 C 185.427 273.252,185.198 272.920,185.206 275.233 M214.200 276.800 C 214.048 277.491,214.014 278.147,214.124 278.257 C 214.234 278.367,214.448 277.891,214.600 277.200 C 214.752 276.509,214.786 275.853,214.676 275.743 C 214.566 275.633,214.352 276.109,214.200 276.800 M186.009 278.833 C 186.014 279.145,186.385 279.850,186.833 280.400 L 187.648 281.400 186.973 280.000 C 186.148 278.288,185.997 278.106,186.009 278.833 M212.178 281.500 C 207.263 289.067,196.508 290.001,189.638 283.459 C 187.886 281.791,187.649 281.654,188.390 282.736 C 193.686 290.466,207.770 289.829,212.523 281.644 C 213.416 280.106,213.154 279.997,212.178 281.500 "
              stroke="none" fill="#fcdc84" fill-rule="evenodd"></path>
    </g>
</svg>