<?xml version="1.0" encoding="iso-8859-1"?>
<!-- Generator: Adobe Illustrator 19.0.0, SVG Export Plug-In . SVG Version: 6.00 Build 0)  -->
<svg xmlns="http://www.w3.org/2000/svg" xmlns:xlink="http://www.w3.org/1999/xlink" version="1.1" id="Layer_1" x="0px" y="0px" viewBox="0 0 512 512" style="enable-background:new 0 0 512 512;" xml:space="preserve" width="512" height="512">
<g>
	<g>
		<path style="fill:#C5E1E6;" d="M115.401,242.366l-70.047-32.133c-4.644-2.129-10.053-1.749-14.354,1.008    C26.7,214,24.1,218.758,24.1,223.867v64.267c0,5.109,2.601,9.867,6.901,12.626c2.455,1.574,5.271,2.374,8.1,2.374    c2.126,0,4.26-0.452,6.253-1.366l70.047-32.134c5.329-2.444,8.746-7.77,8.746-13.634    C124.147,250.137,120.73,244.811,115.401,242.366z"/>
		<path style="fill:#C5E1E6;" d="M167.472,314.888c5.142,0,10.443-2.25,10.443-6.588V203.862c0-4.181-4.98-6.75-9.318-6.75    c-1.768,0-3.213,0.643-4.338,1.608l-18.958,14.461c-2.573,1.607-4.021,4.657-4.021,7.55c0,4.179,2.735,8.354,6.752,8.354    c1.123,0,2.568-0.319,3.858-1.443l5.138-5.142v85.8C157.027,312.638,162.172,314.888,167.472,314.888z"/>
		<path style="fill:#8DB9C4;" d="M352.32,315.208c21.207,0,37.758-9.962,37.758-36.795v-44.828    c0-26.833-16.551-36.793-37.758-36.793c-21.213,0-37.601,9.96-37.601,36.793v44.828    C314.719,305.246,331.107,315.208,352.32,315.208z M335.607,233.585c0-12.693,6.107-18.476,16.713-18.476    c10.443,0,16.871,5.782,16.871,18.476v44.828c0,12.696-6.428,18.479-16.871,18.479c-10.606,0-16.713-5.782-16.713-18.479V233.585z    "/>
		<path style="fill:#C5E1E6;" d="M264.033,0h-16.066C230.836,0,216.9,13.938,216.9,31.068v449.865    c0,17.13,13.936,31.066,31.066,31.066h16.066c17.13,0,31.066-13.936,31.066-31.066V31.068C295.099,13.938,281.163,0,264.033,0z"/>
		<path style="fill:#C5E1E6;" d="M167.633,0h-16.066c-17.13,0-31.067,13.938-31.067,31.068v64.266    c0,17.13,13.937,31.066,31.067,31.066h16.066c17.131,0,31.066-13.937,31.066-31.066V31.068C198.699,13.938,184.763,0,167.633,0z"/>
		<path style="fill:#C5E1E6;" d="M55.166,126.4h16.066c17.13,0,31.067-13.937,31.067-31.066V31.068C102.3,13.938,88.363,0,71.233,0    H55.166C38.036,0,24.1,13.938,24.1,31.068v64.266C24.1,112.464,38.036,126.4,55.166,126.4z"/>
		<path style="fill:#8DB9C4;" d="M456.832,0h-16.066c-17.13,0-31.066,13.938-31.066,31.068v64.266    c0,17.13,13.936,31.066,31.066,31.066h16.066c17.131,0,31.068-13.937,31.068-31.066V31.068C487.9,13.938,473.963,0,456.832,0z"/>
		<path style="fill:#8DB9C4;" d="M360.433,0h-16.066c-17.131,0-31.068,13.938-31.068,31.068v64.266    c0,17.13,13.938,31.066,31.068,31.066h16.066c17.13,0,31.066-13.937,31.066-31.066V31.068C391.5,13.938,377.563,0,360.433,0z"/>
		<path style="fill:#C5E1E6;" d="M167.633,385.6h-16.066c-17.13,0-31.067,13.936-31.067,31.067v64.267    c0,17.13,13.937,31.066,31.067,31.066h16.066c17.131,0,31.066-13.936,31.066-31.066v-64.267    C198.699,399.536,184.763,385.6,167.633,385.6z"/>
		<path style="fill:#C5E1E6;" d="M71.233,385.6H55.166c-17.13,0-31.066,13.936-31.066,31.067v64.267    C24.1,498.064,38.036,512,55.166,512h16.066c17.13,0,31.067-13.936,31.067-31.066v-64.267    C102.3,399.536,88.363,385.6,71.233,385.6z"/>
		<path style="fill:#8DB9C4;" d="M456.832,385.6h-16.066c-17.13,0-31.066,13.936-31.066,31.067v64.267    c0,17.13,13.936,31.066,31.066,31.066h16.066c17.131,0,31.068-13.936,31.068-31.066v-64.267    C487.9,399.536,473.963,385.6,456.832,385.6z"/>
		<path style="fill:#8DB9C4;" d="M360.433,385.6h-16.066c-17.131,0-31.068,13.936-31.068,31.067v64.267    c0,17.13,13.938,31.066,31.068,31.066h16.066c17.13,0,31.066-13.936,31.066-31.066v-64.267    C391.5,399.536,377.563,385.6,360.433,385.6z"/>
	</g>
	<path style="fill:#8DB9C4;" d="M264.033,0H256v512h8.033c17.13,0,31.066-13.936,31.066-31.066V31.068   C295.099,13.938,281.163,0,264.033,0z"/>
</g>
</svg>
