<?xml version="1.0" encoding="iso-8859-1"?>
<!-- Generator: Adobe Illustrator 19.0.0, SVG Export Plug-In . SVG Version: 6.00 Build 0)  -->
<svg version="1.1" id="Capa_1" xmlns="http://www.w3.org/2000/svg" xmlns:xlink="http://www.w3.org/1999/xlink" x="0px"
     y="0px"
     viewBox="0 0 512.84 512.84" style="enable-background:new 0 0 512.84 512.84;" xml:space="preserve">
<path style="fill:#FFD15C;" d="M461.64,365.33c-6.4,0-40.533,12.8-40.533,12.8c-5.333-34.133-70.4-24.533-77.867-24.533
	c-8.533,0-17.067-3.2-36.267-11.733c-20.267-8.533-43.733-19.2-43.733-19.2c-48-12.8-98.133,6.4-109.867,11.733
	c-7.467,3.2-40.533,12.8-65.067,20.267v105.6c23.467-9.6,56.533-22.4,66.133-24.533c14.933-3.2,52.267,2.133,72.533,8.533
	c19.2,5.333,66.133,24.533,87.467,26.667c20.267,2.133,32-6.4,43.733-16c11.733-9.6,44.8-21.333,52.267-25.6
	c7.467-4.267,18.133-12.8,26.667-17.067c8.533-3.2,37.333-16,37.333-16l38.4-10.667C502.174,356.796,468.04,365.33,461.64,365.33z"
/>
    <path style="fill:#F7B64C;" d="M289.907,413.33c0,0,0,0,1.067-1.067c0,0,1.067-1.067,1.067-2.133c0-1.067,1.067-1.067,2.133-2.133
	c1.067-1.067,3.2-3.2,6.4-4.267h1.067h1.067c1.067,0,1.067-1.067,2.133-1.067c1.067-1.067,3.2-1.067,5.333-1.067
	c2.133,0,3.2-1.067,5.333-1.067h1.067h1.067c1.067,0,2.133,0,3.2,0c4.267,0,8.533,0,12.8,1.067c4.267,1.067,8.533,1.067,12.8,2.133
	c1.067,0,2.133,0,3.2,0s2.133,0,3.2,0s1.067,0,2.133,0h2.133c1.067,0,2.133,0,3.2,0c4.267,0,8.533,0,12.8-1.067
	s8.533-1.067,12.8-2.133c2.133-1.067,4.267-1.067,6.4-2.133c1.067,0,2.133-1.067,3.2-1.067s2.133-1.067,3.2-1.067h1.067h1.067
	c1.067,0,2.133-1.067,2.133-1.067c2.133-1.067,3.2-1.067,5.333-2.133c1.067-1.067,3.2-1.067,4.267-2.133
	c1.067-1.067,2.133-1.067,4.267-2.133c2.133-1.067,4.267-3.2,5.333-4.267c1.067-1.067,2.133-3.2,2.133-4.267v-1.067l0,0l0,0v1.067
	c0,1.067-1.067,2.133-2.133,4.267c-1.067,2.133-3.2,3.2-5.333,5.333c-1.067,1.067-2.133,2.133-3.2,2.133
	c-1.067,1.067-3.2,2.133-4.267,2.133c-1.067,1.067-3.2,2.133-4.267,2.133c-1.067,0-2.133,1.067-2.133,1.067s-1.067,0-1.067,1.067
	c0,0-1.067,0-1.067,1.067c-1.067,0-2.133,1.067-3.2,1.067s-2.133,1.067-3.2,1.067c0,0-1.067,0-1.067,1.067h-1.067
	c-1.067,0-2.133,1.067-3.2,1.067c-2.133,1.067-4.267,1.067-6.4,2.133c-1.067,0-2.133,0-3.2,1.067c-1.067,0-2.133,0-3.2,1.067
	c-4.267,1.067-9.6,1.067-13.867,1.067c-1.067,0-2.133,0-3.2,0h-2.133c-1.067,0-1.067,0-2.133,0c-1.067,0-2.133,0-3.2,0
	s-2.133,0-3.2,0c-2.133,0-4.267-1.067-6.4-1.067c-2.133,0-4.267-1.067-6.4-1.067c-4.267-1.067-8.533-1.067-11.733-2.133
	c-1.067,0-2.133,0-3.2,0h-1.067h-1.067c-2.133,0-3.2,0-5.333,0c-3.2,0-6.4,1.067-8.533,2.133c-2.133,1.067-4.267,2.133-6.4,3.2
	c-1.067,1.067-1.067,1.067-2.133,2.133c-1.067,0-1.067,1.067-1.067,1.067C289.907,412.263,289.907,413.33,289.907,413.33z"/>
    <g>
	<path style="fill:#E8EAE9;" d="M394.44,362.13c0,0-4.267-1.067-4.267,4.267c1.067,5.333,2.133,18.133,0,21.333
		c-2.133,3.2,3.2,3.2,7.467,3.2c4.267,0,18.133-4.267,18.133-4.267s14.933-7.467,0-22.4c-2.133-2.133-4.267-3.2-6.4-3.2
		L394.44,362.13z"/>
        <path style="fill:#E8EAE9;" d="M511.774,384.53l-32,9.6C477.64,374.93,511.774,384.53,511.774,384.53z"/>
</g>
    <rect x="54.045" y="382.932" transform="matrix(-0.1167 -0.9932 0.9932 -0.1167 -259.6248 586.1606)"
          style="fill:#F3F3F3;" width="153.605" height="51.202"/>
    <rect x="-19.173" y="353.768" transform="matrix(-0.1167 -0.9932 0.9932 -0.1167 -332.4262 534.5524)"
          style="fill:#415A6B;" width="181.339" height="122.671"/>
    <circle style="fill:#344A5E;" cx="96.84" cy="460.263" r="21.333"/>
    <path style="fill:#66C6B9;" d="M348.574,214.93l18.133-9.6l-3.2-17.067l-20.267-3.2c-2.133-6.4-6.4-11.733-9.6-17.067l7.467-18.133
	l-12.8-10.667l-17.067,10.667c-5.333-3.2-11.733-5.333-19.2-6.4l-6.4-19.2h-17.067l-6.4,19.2c-6.4,1.067-12.8,4.267-19.2,6.4
	l-17.067-10.667l-12.8,10.667l7.467,19.2c-4.267,5.333-7.467,10.667-9.6,17.067l-19.2,2.133l-3.2,17.067l18.133,9.6
	c0,6.4,1.067,13.867,3.2,19.2l-13.867,14.933l8.533,14.933l20.267-4.267c4.267,5.333,9.6,9.6,14.933,12.8l-1.067,20.267l16,5.333
	l12.8-16c3.2,0,6.4,1.067,9.6,1.067c3.2,0,6.4,0,9.6-1.067l12.8,16l16-5.333l-1.067-20.267c5.333-3.2,10.667-7.467,14.933-12.8
	l20.267,4.267l8.533-14.933l-13.867-14.933C347.507,228.796,348.574,221.33,348.574,214.93z M303.774,202.13
	c-3.2-7.467-8.533-13.867-16-16l-3.2-20.267c20.267,3.2,36.267,19.2,39.467,39.467L303.774,202.13z M277.107,225.596
	c-7.467,0-12.8-5.333-12.8-12.8s5.333-12.8,12.8-12.8s12.8,5.333,12.8,12.8C289.907,219.196,284.574,225.596,277.107,225.596z
	 M267.507,186.13c-7.467,3.2-13.867,8.533-16,16l-20.267,3.2c3.2-20.267,19.2-36.267,39.467-39.467L267.507,186.13z M250.44,222.396
	c3.2,7.467,8.533,13.867,16,16l3.2,20.267c-20.267-3.2-36.267-19.2-39.467-39.467L250.44,222.396z M287.774,239.463
	c7.467-3.2,13.867-8.533,16-16l20.267-3.2c-3.2,20.267-19.2,36.267-39.467,39.467L287.774,239.463z"/>
    <path style="fill:#F3705A;" d="M494.707,245.863l14.933-7.467l-2.133-13.867l-16-2.133c-2.133-5.333-4.267-9.6-7.467-13.867
	l6.4-14.933l-10.667-8.533l-14.933,7.467c-4.267-2.133-9.6-4.267-14.933-5.333l-4.267-16h-13.867l-5.333,14.933
	c-5.333,1.067-10.667,3.2-14.933,5.333l-14.933-9.6l-10.667,8.533l6.4,16c-3.2,4.267-6.4,8.533-8.533,13.867l-16,2.133l-3.2,12.8
	l14.933,7.467c0,5.333,1.067,10.667,2.133,16l-11.733,11.733l6.4,11.733l16-3.2c3.2,4.267,7.467,7.467,12.8,10.667l0,18.133
	l12.8,5.333l10.667-12.8c2.133,0,5.333,1.067,8.533,1.067c3.2,0,5.333,0,8.533,0l9.6,13.867l12.8-4.267v-17.067
	c4.267-3.2,8.533-6.4,12.8-10.667l16,4.267l7.467-11.733l-10.667-12.8C493.64,256.53,494.707,251.196,494.707,245.863z
	 M437.107,269.33c-14.933,0-26.667-12.8-25.6-26.667c0-14.933,12.8-26.667,26.667-26.667c14.933,0,26.667,12.8,25.6,26.667
	C463.774,257.596,450.974,269.33,437.107,269.33z"/>
    <path style="fill:#344A5E;" d="M466.974,102.93l20.267-6.4V79.463l-19.2-6.4c-1.067-6.4-4.267-12.8-7.467-19.2l10.667-17.067
	l-10.667-12.8l-19.2,8.533c-5.333-4.267-10.667-7.467-17.067-9.6l-3.2-20.267L402.974,0.53l-8.533,18.133
	c-6.4,0-13.867,2.133-20.267,4.267L359.24,9.063l-14.933,8.533l4.267,20.267c-5.333,4.267-9.6,9.6-12.8,16l-20.267-1.067l-5.333,16
	l16,12.8c-1.067,6.4-1.067,13.867,0,20.267l-16,12.8l6.4,16l20.267-1.067c3.2,5.333,8.533,10.667,12.8,14.933l-4.267,20.267
	l14.933,8.533l14.933-13.867c3.2,1.067,6.4,2.133,9.6,2.133c3.2,1.067,6.4,1.067,9.6,1.067l9.6,18.133l17.067-3.2l2.133-20.267
	c6.4-2.133,11.733-6.4,17.067-10.667l19.2,7.467l10.667-12.8l-11.733-17.067C463.774,116.796,465.907,110.396,466.974,102.93z
	 M445.64,90.13l-20.267-6.4c-2.133-7.467-6.4-14.933-13.867-19.2V44.263C431.774,50.663,445.64,68.796,445.64,90.13z
	 M373.107,75.196h-21.333c6.4-19.2,24.533-33.067,45.867-33.067l-6.4,20.267C383.774,63.463,377.374,68.796,373.107,75.196z
	 M395.507,102.93c-7.467-1.067-11.733-7.467-10.667-14.933c1.067-7.467,7.467-11.733,14.933-10.667s11.733,7.467,10.667,14.933
	C409.374,98.663,402.974,103.996,395.507,102.93z M349.64,90.13l20.267,6.4c2.133,7.467,6.4,14.933,13.867,18.133v20.267
	C363.507,128.53,349.64,110.396,349.64,90.13z M397.64,137.063l6.4-20.267c7.467-2.133,14.933-6.4,19.2-13.867h20.267
	C437.107,124.263,417.907,137.063,397.64,137.063z"/>
    <g>
</g>
    <g>
</g>
    <g>
</g>
    <g>
</g>
    <g>
</g>
    <g>
</g>
    <g>
</g>
    <g>
</g>
    <g>
</g>
    <g>
</g>
    <g>
</g>
    <g>
</g>
    <g>
</g>
    <g>
</g>
    <g>
</g>
</svg>
