<svg height="511.99948pt" viewBox="0 0 511.99948 511.99948" width="511.99948pt" xmlns="http://www.w3.org/2000/svg">
    <path d="m497.957031 387.921875-103.695312-103.695313c-15.589844-15.589843-15.589844-40.863281 0-56.453124l103.695312-103.695313c18.722657-18.722656 18.722657-49.074219 0-67.796875l-42.238281-42.238281c-18.722656-18.722657-49.074219-18.722657-67.796875 0l-103.695313 103.695312c-15.589843 15.585938-40.863281 15.585938-56.453124 0l-103.695313-103.695312c-18.722656-18.722657-49.074219-18.722657-67.796875 0l-42.238281 42.238281c-18.722657 18.722656-18.722657 49.074219 0 67.796875l103.695312 103.695313c15.589844 15.589843 15.589844 40.863281 0 56.453124l-103.695312 103.695313c-18.722657 18.722656-18.722657 49.074219 0 67.796875l42.238281 42.238281c18.722656 18.722657 49.074219 18.722657 67.796875 0l103.695313-103.695312c15.589843-15.589844 40.863281-15.589844 56.453124 0l103.695313 103.695312c18.722656 18.722657 49.074219 18.722657 67.796875 0l42.238281-42.238281c18.722657-18.722656 18.722657-49.074219 0-67.796875zm0 0"
          fill="#ff8a98"/>
    <path d="m142.367188 32.328125-18.289063-18.285156c-18.722656-18.722657-49.074219-18.722657-67.796875 0l-42.238281 42.238281c-18.722657 18.722656-18.722657 49.074219 0 67.796875l103.695312 103.695313c15.589844 15.589843 15.589844 40.863281 0 56.453124l-103.695312 103.695313c-18.722657 18.722656-18.722657 49.074219 0 67.796875l26.035156 26.039062c.023437-39.996093 26.917969-64.777343 26.917969-64.777343l139.523437-139.523438c21.28125-21.28125 21.28125-55.785156 0-77.070312l-81.496093-81.496094c-18.460938-18.457031-18.875-48.253906-.945313-67.21875zm0 0"
          fill="#fd5c6f"/>
</svg>