<svg height="512pt" viewBox="0 0 512 512.00091" width="512pt" xmlns="http://www.w3.org/2000/svg">
    <path d="m498.550781 280.578125-125.300781-126.167969-73.148438-73.671875c-6.933593-6.984375-16.136718-11.390625-25.914062-12.402343-.511719-.054688-1.023438-.082032-1.539062-.082032l-160.875-.105468c-.011719 0-.019532 0-.03125 0-11.414063 0-22.148438 4.445312-30.226563 12.523437-8.082031 8.078125-12.535156 18.820313-12.542969 30.25l-.105468 160.15625c0 .492187.023437.988281.070312 1.480469.964844 9.765625 5.300781 18.980468 12.21875 25.949218l132.605469 133.558594 66.214843 66.65625c8.484376 8.542969 19.785157 13.257813 31.828126 13.277344h.074218c12.011719 0 23.300782-4.675781 31.792969-13.171875l154.769531-154.765625c17.472656-17.472656 17.523438-45.953125.109375-63.484375zm-340.367187-75.03125c-26.28125 0-47.664063-21.382813-47.664063-47.671875s21.382813-47.671875 47.664063-47.671875 47.660156 21.382813 47.660156 47.671875-21.378906 47.671875-47.660156 47.671875zm0 0"
          fill="#4088c9"/>
    <path d="m274.1875 68.335938c-.511719-.054688-1.023438-.082032-1.539062-.082032l-160.875-.105468c-.011719 0-.019532 0-.03125 0-11.414063 0-22.148438 4.445312-30.226563 12.523437l42.828125 43.664063c8.640625-8.722657 20.621094-14.132813 33.839844-14.132813 26.28125 0 47.660156 21.382813 47.660156 47.671875 0 13.140625-5.34375 25.058594-13.972656 33.691406l229.535156 229.53125 77.035156-77.035156c17.472656-17.476562 17.523438-45.953125.109375-63.488281l-125.300781-126.164063-73.148438-73.671875c-6.933593-6.984375-16.136718-11.390625-25.914062-12.402343zm0 0"
          fill="#1d598f"/>
    <path d="m144.195312 122.773438-118.191406-118.308594c-5.941406-5.949219-15.585937-5.953125-21.539062-.011719-5.949219 5.945313-5.953125 15.589844-.007813 21.539063l118.191407 118.308593c2.972656 2.980469 6.875 4.46875 10.773437 4.46875 3.894531 0 7.792969-1.488281 10.765625-4.457031 5.949219-5.945312 5.953125-15.589844.007812-21.539062zm0 0"
          fill="#ff7d4f"/>
    <path d="m253.882812 355.722656 102.148438-102.148437c5.859375-5.855469 5.859375-15.351563 0-21.207031-5.855469-5.859376-15.351562-5.859376-21.207031 0l-102.148438 102.148437c-5.855469 5.855469-5.855469 15.351563 0 21.207031 5.855469 5.855469 15.351563 5.855469 21.207031 0zm0 0"
          fill="#f2f6ff"/>
    <path d="m379.355469 276.898438-102.148438 102.148437c-5.855469 5.855469-5.855469 15.351563 0 21.207031 5.855469 5.855469 15.351563 5.855469 21.207031 0l102.148438-102.148437c5.855469-5.855469 5.855469-15.351563 0-21.207031-5.855469-5.855469-15.351562-5.855469-21.207031 0zm0 0"
          fill="#f2f6ff"/>
    <g fill="#b7c9fa">
        <path d="m334.824219 232.367188-51.074219 51.074218 21.207031 21.207032 51.074219-51.074219c5.859375-5.855469 5.859375-15.351563 0-21.207031-5.855469-5.859376-15.351562-5.859376-21.207031 0zm0 0"/>
        <path d="m379.355469 276.898438-51.074219 51.074218 21.207031 21.207032 51.074219-51.074219c5.855469-5.855469 5.855469-15.351563 0-21.207031-5.855469-5.855469-15.351562-5.855469-21.207031 0zm0 0"/>
    </g>
</svg>