<svg id="_x31__x2C_5" height="512" viewBox="0 0 24 24" width="512" xmlns="http://www.w3.org/2000/svg">
    <path d="m21.25.75h-7c-.86 0-1.63.36-2.18.94l-10.77 11.19c-.34.35-.55.84-.55 1.37 0 .55.22 1.05.59 1.41l7 7c.36.37.86.59 1.41.59.53 0 1.02-.21 1.37-.55l11.19-10.77c.58-.55.94-1.32.94-2.18v-7c0-1.1-.9-2-2-2z"
          fill="#cfd8dc"/>
    <path d="m19 6.438c-.793 0-1.438-.645-1.438-1.438s.645-1.437 1.438-1.437 1.438.644 1.438 1.437-.645 1.438-1.438 1.438z"
          fill="#90a4ae"/>
    <path d="m12.18 13.39 1.37-2.94-2.94 1.37-2.32-2.07.25 3.16-2.79 1.66 3.09.59.59 3.09 1.66-2.79 3.16.25z"
          fill="#ffc107"/>
    <path d="m9.75 24c-.735 0-1.426-.286-1.945-.806l-7-7c-.519-.518-.805-1.209-.805-1.944 0-.706.267-1.377.752-1.89l10.778-11.192c.7-.74 1.694-1.168 2.72-1.168h7c1.517 0 2.75 1.233 2.75 2.75v7c0 1.025-.427 2.017-1.17 2.722l-11.185 10.771c-.518.49-1.189.757-1.895.757zm4.5-22.5c-.625 0-1.206.25-1.635.704l-10.778 11.192c-.215.228-.337.533-.337.854 0 .334.13.648.366.883l7 7c.462.463 1.267.474 1.743.024l11.183-10.767c.001-.002.003-.003.004-.005.454-.429.704-1.01.704-1.635v-7c0-.689-.561-1.25-1.25-1.25z"/>
    <path d="m19 7c-1.103 0-2-.897-2-2s.897-2 2-2 2 .897 2 2-.897 2-2 2zm0-2.5c-.276 0-.5.224-.5.5s.224.5.5.5.5-.224.5-.5-.224-.5-.5-.5z"/>
    <path d="m9.431 19c-.043 0-.087-.004-.13-.011-.307-.054-.548-.292-.606-.599l-.493-2.592-2.592-.492c-.306-.058-.544-.3-.599-.606s.087-.615.355-.775l2.392-1.425-.212-2.69c-.025-.307.14-.596.414-.732.274-.137.604-.092.833.112l1.946 1.737 2.493-1.155c.285-.131.624-.073.846.15.223.223.283.56.15.846l-1.155 2.493 1.737 1.946c.204.229.249.558.112.833s-.424.437-.731.415l-2.69-.212-1.425 2.392c-.138.228-.384.365-.645.365zm-1.598-4.799 1.151.219c.303.058.539.294.597.597l.219 1.151.651-1.093c.146-.245.418-.381.704-.364l1.292.102-.821-.919c-.199-.223-.247-.543-.121-.815l.502-1.084-1.084.502c-.272.125-.592.078-.815-.121l-.919-.821.102 1.292c.022.285-.119.557-.364.704z"/>
</svg>