<?xml version="1.0" encoding="iso-8859-1"?>
<!-- Generator: Adobe Illustrator 19.0.0, SVG Export Plug-In . SVG Version: 6.00 Build 0)  -->
<svg xmlns="http://www.w3.org/2000/svg" xmlns:xlink="http://www.w3.org/1999/xlink" version="1.1" id="Layer_1" x="0px"
     y="0px" viewBox="0 0 512 512" style="enable-background:new 0 0 512 512;" xml:space="preserve" width="512"
     height="512">
<g>
	<g>
		<path style="fill:#FFBD59;"
              d="M130.3,72.215c8.284,0,15-6.716,15-15V30h27.004c8.284,0,15-6.716,15-15s-6.716-15-15-15H130.3    c-8.284,0-15,6.716-15,15v42.215C115.3,65.5,122.016,72.215,130.3,72.215z"/>
        <path style="fill:#FF8036;"
              d="M290.005,0h-42.003c-8.284,0-15,6.716-15,15s6.716,15,15,15h27.003v27.215c0,8.284,6.716,15,15,15    s15-6.716,15-15V15C305.005,6.716,298.289,0,290.005,0z"/>
        <path style="fill:#FFBD59;"
              d="M180.304,145.696H145.3v-29.215c0-8.284-6.716-15-15-15s-15,6.716-15,15v44.215    c0,8.284,6.716,15,15,15h50.004c8.284,0,15-6.716,15-15S188.588,145.696,180.304,145.696z"/>
        <path style="fill:#FF8036;"
              d="M290.005,101.481c-8.284,0-15,6.716-15,15v29.215h-35.003c-8.284,0-15,6.716-15,15s6.716,15,15,15    h50.003c8.284,0,15-6.716,15-15v-44.215C305.005,108.197,298.289,101.481,290.005,101.481z"/>
	</g>
    <path style="fill:#FFED76;"
          d="M404.29,266.268c0-15.336-12.433-27.769-27.769-27.769l0,0c-15.336,0-27.769,12.433-27.769,27.769   v-14.146c0-15.336-12.433-27.769-27.769-27.769l0,0c-15.337,0-27.769,12.433-27.769,27.769v-11.896   c0-15.337-12.433-27.769-27.769-27.769l0,0c-15.337,0-27.769,12.433-27.769,27.769V137.791c0-15.336-12.433-27.769-27.769-27.769   l0,0c-15.337,0-27.769,12.433-27.769,27.769v165.959v72.437l-1.202-0.15l-17.11-73.227c-3.49-14.934-18.425-24.212-33.359-20.723h0   c-15.684,0-25.597,12.496-22.029,27.769l19.836,84.894C138.648,461.176,192.343,512,192.343,512h168.711l0,0   c28.189-42.877,43.214-93.066,43.221-144.38L404.29,266.268z"/>
    <path style="fill:#FFC636;"
          d="M376.521,238.499c-15.336,0-27.77,12.433-27.77,27.769v-14.146   c0-15.336-12.433-27.769-27.769-27.769c-15.337,0-27.77,12.433-27.77,27.769L293.07,512h67.984v0   c28.189-42.877,43.214-93.066,43.222-144.38l0.015-101.352C404.29,250.931,391.858,238.499,376.521,238.499z"/>
</g>















</svg>
