<?xml version="1.0" encoding="iso-8859-1"?>
<!-- Generator: Adobe Illustrator 19.0.0, SVG Export Plug-In . SVG Version: 6.00 Build 0)  -->
<svg version="1.1" id="Capa_1" xmlns="http://www.w3.org/2000/svg" xmlns:xlink="http://www.w3.org/1999/xlink" x="0px"
     y="0px"
     viewBox="0 0 480 480" style="enable-background:new 0 0 480 480;" xml:space="preserve">
<path style="fill:#FCD821;" d="M151.993,304C68.046,303.993-0.001,235.934,0.007,151.987S68.073-0.007,152.02,0
	c74.156,0.006,137.484,53.524,149.856,126.641l11.258-18.758l13.719,8.234l-24,40c-2.274,3.788-7.188,5.016-10.976,2.742
	c-2.409-1.446-3.883-4.05-3.883-6.86c0-75.111-60.889-136-136-136s-136,60.889-136,136s60.889,136,136,136V304z"/>
    <path style="fill:#EC322C;" d="M263.081,165.643v-27.286l-16.703-3.51c-0.943-5.18-2.316-10.272-4.103-15.225l12.798-11.465
	c-3.603-8.36-8.214-16.248-13.731-23.489l-16.146,5.303c-3.412-4.022-7.148-7.757-11.17-11.169l5.304-16.147
	c-7.241-5.518-15.13-10.13-23.491-13.733l-11.466,12.797c-4.953-1.787-10.046-3.159-15.226-4.103l-3.511-16.703h-27.286
	l-3.51,16.703c-5.18,0.944-10.272,2.316-15.225,4.103L108.15,48.92c-8.36,3.603-16.248,8.214-23.489,13.731l5.303,16.146
	c-4.022,3.412-7.757,7.148-11.169,11.17l-16.147-5.304c-5.518,7.241-10.129,15.13-13.732,23.49l12.797,11.466
	c-1.787,4.953-3.159,10.046-4.103,15.226l-16.703,3.511v27.286l16.703,3.51c0.943,5.18,2.316,10.273,4.103,15.225l-12.797,11.465
	c3.603,8.36,8.214,16.248,13.731,23.489l16.146-5.303c3.412,4.022,7.148,7.757,11.17,11.169l-5.304,16.147
	c7.241,5.518,15.13,10.13,23.491,13.733l11.466-12.797c4.953,1.787,10.046,3.16,15.226,4.104l3.511,16.703h27.286l3.51-16.703
	c5.18-0.944,10.272-2.316,15.225-4.103l11.465,12.798c8.36-3.603,16.248-8.214,23.489-13.731l-5.303-16.146
	c4.022-3.412,7.757-7.148,11.169-11.17l16.147,5.304c5.518-7.241,10.13-15.13,13.733-23.491l-12.797-11.466
	c1.787-4.953,3.159-10.046,4.103-15.226L263.081,165.643z M151.993,216c-35.346,0-64-28.654-64-64s28.654-64,64-64s64,28.654,64,64
	S187.34,216,151.993,216z"/>
    <path style="fill:#344496;" d="M135.993,120v64l48-32L135.993,120z"/>
    <path style="fill:#EC322C;" d="M439.081,341.643v-27.286l-16.703-3.51c-0.943-5.18-2.316-10.272-4.103-15.225l12.798-11.465
	c-3.603-8.36-8.214-16.248-13.731-23.489l-16.146,5.303c-3.412-4.022-7.148-7.757-11.17-11.169l5.304-16.147
	c-7.241-5.518-15.13-10.13-23.491-13.733l-11.466,12.797c-4.953-1.787-10.046-3.159-15.226-4.103l-3.511-16.703h-27.286
	l-3.51,16.703c-5.18,0.944-10.272,2.316-15.225,4.103L284.15,224.92c-8.36,3.603-16.248,8.214-23.489,13.731l5.303,16.146
	c-4.022,3.412-7.757,7.148-11.169,11.17l-16.147-5.304c-5.518,7.241-10.129,15.13-13.732,23.49l12.797,11.466
	c-1.787,4.953-3.159,10.046-4.103,15.226l-16.703,3.511v27.286l16.703,3.51c0.943,5.18,2.316,10.273,4.103,15.225l-12.797,11.465
	c3.603,8.36,8.214,16.248,13.731,23.489l16.146-5.303c3.412,4.022,7.148,7.757,11.17,11.169l-5.304,16.147
	c7.241,5.518,15.13,10.13,23.491,13.733l11.466-12.797c4.953,1.787,10.046,3.16,15.226,4.104l3.511,16.703h27.286l3.51-16.703
	c5.18-0.944,10.272-2.316,15.225-4.103l11.465,12.798c8.36-3.603,16.248-8.214,23.489-13.731l-5.303-16.146
	c4.022-3.412,7.757-7.148,11.169-11.17l16.147,5.304c5.518-7.241,10.13-15.13,13.733-23.491l-12.797-11.466
	c1.787-4.953,3.159-10.046,4.103-15.226L439.081,341.643z M327.993,392c-35.346,0-64-28.654-64-64s28.654-64,64-64s64,28.654,64,64
	S363.34,392,327.993,392z"/>
    <path style="fill:#344496;" d="M311.993,296v64l48-32L311.993,296z"/>
    <path style="fill:#82DBD4;" d="M327.993,480c-74.128-0.098-137.412-53.569-149.883-126.641l-11.258,18.758l-13.719-8.234l24-40
	c2.274-3.788,7.188-5.016,10.976-2.742c2.409,1.446,3.883,4.05,3.883,6.86c0,75.111,60.889,136,136,136s136-60.889,136-136
	s-60.889-136-136-136v-16c83.947,0,152,68.053,152,152S411.941,480,327.993,480z"/>
    <g>
</g>
    <g>
</g>
    <g>
</g>
    <g>
</g>
    <g>
</g>
    <g>
</g>
    <g>
</g>
    <g>
</g>
    <g>
</g>
    <g>
</g>
    <g>
</g>
    <g>
</g>
    <g>
</g>
    <g>
</g>
    <g>
</g>
</svg>
