<?xml version="1.0" encoding="iso-8859-1"?>
<!-- Generator: Adobe Illustrator 19.0.0, SVG Export Plug-In . SVG Version: 6.00 Build 0)  -->
<svg version="1.1" id="Capa_1" xmlns="http://www.w3.org/2000/svg" xmlns:xlink="http://www.w3.org/1999/xlink" x="0px"
     y="0px"
     viewBox="0 0 197.973 197.973" style="enable-background:new 0 0 197.973 197.973;" xml:space="preserve">
<g>
	<path style="fill:#602F75;" d="M163.839,83.821c-1.884,0-3.413-1.529-3.413-3.413V27.307c0-1.884,1.529-3.413,3.413-3.413
		s3.413,1.529,3.413,3.413v53.101C167.252,82.294,165.723,83.821,163.839,83.821z"/>
    <path style="fill:#602F75;" d="M98.986,197.973c-44.341,0-68.267-14.068-68.267-27.307V27.307c0-1.884,1.529-3.413,3.413-3.413
		c1.884,0,3.413,1.529,3.413,3.413v143.36c0,9.687,25.233,20.48,61.44,20.48s61.44-10.793,61.44-20.48v-59.839
		c0-1.884,1.529-3.413,3.413-3.413s3.413,1.529,3.413,3.413v59.839C167.252,183.905,143.327,197.973,98.986,197.973z"/>
</g>
    <ellipse style="fill:#FFFFFF;" cx="98.986" cy="27.307" rx="64.853" ry="23.893"/>
    <g>
	<path style="fill:#602F75;" d="M98.986,54.613c-44.341,0-68.267-14.07-68.267-27.307S54.645,0,98.986,0s68.267,14.07,68.267,27.307
		S143.327,54.613,98.986,54.613z M98.986,6.827c-36.207,0-61.44,10.793-61.44,20.48s25.233,20.48,61.44,20.48
		s61.44-10.793,61.44-20.48S135.193,6.827,98.986,6.827z"/>
        <path style="fill:#602F75;" d="M98.986,136.533c-44.341,0-68.267-14.07-68.267-27.307c0-1.884,1.529-3.413,3.413-3.413
		c1.884,0,3.413,1.529,3.413,3.413c0,9.687,25.233,20.48,61.44,20.48s61.44-10.793,61.44-20.48c0-1.884,1.529-3.413,3.413-3.413
		s3.413,1.529,3.413,3.413C167.252,122.464,143.327,136.533,98.986,136.533z"/>
        <path style="fill:#602F75;" d="M163.839,112.64c-1.884,0-3.413-1.529-3.413-3.413c0-3.355-3.137-6.298-5.769-8.175
		c-1.534-1.096-1.891-3.226-0.797-4.762c1.094-1.536,3.226-1.893,4.762-0.797c7.136,5.088,8.632,10.276,8.632,13.734
		C167.252,111.111,165.723,112.64,163.839,112.64z M34.132,112.64c-1.884,0-3.413-1.529-3.413-3.413
		c0-4.096,1.959-7.958,5.825-11.479c1.391-1.268,3.553-1.171,4.821,0.225c1.27,1.393,1.169,3.553-0.225,4.821
		c-2.386,2.173-3.594,4.337-3.594,6.432C37.546,111.111,36.017,112.64,34.132,112.64z M50.534,96.758
		c-1.34,0-2.611-0.794-3.156-2.109c-0.72-1.743,0.108-3.738,1.848-4.46c3.988-1.65,8.533-3.094,13.51-4.294
		c1.838-0.444,3.678,0.686,4.118,2.519c0.442,1.833-0.686,3.676-2.519,4.118c-4.632,1.116-8.837,2.451-12.5,3.965
		C51.411,96.676,50.967,96.758,50.534,96.758z M144.458,95.606c-0.387,0-0.78-0.067-1.164-0.205
		c-3.792-1.374-8.061-2.569-12.686-3.552c-1.845-0.391-3.023-2.205-2.632-4.048c0.391-1.845,2.212-3.024,4.048-2.632
		c4.934,1.048,9.508,2.33,13.595,3.811c1.772,0.642,2.688,2.599,2.046,4.372C147.163,94.742,145.854,95.606,144.458,95.606z
		 M76.958,90.16c-1.686,0-3.152-1.248-3.379-2.964c-0.249-1.869,1.065-3.586,2.934-3.833c4.489-0.597,9.161-1.014,13.887-1.239
		c1.85-0.118,3.482,1.362,3.572,3.246c0.09,1.882-1.364,3.482-3.246,3.572c-4.535,0.217-9.013,0.616-13.314,1.186
		C77.258,90.15,77.106,90.16,76.958,90.16z M117.839,89.772c-0.126,0-0.254-0.007-0.384-0.02c-4.325-0.483-8.813-0.795-13.341-0.928
		c-1.884-0.055-3.367-1.628-3.311-3.512c0.056-1.884,1.584-3.372,3.512-3.311c4.714,0.138,9.39,0.462,13.901,0.966
		c1.874,0.21,3.222,1.898,3.014,3.772C121.033,88.482,119.555,89.772,117.839,89.772z"/>
</g>
    <ellipse style="fill:#FFE600;" cx="98.986" cy="27.307" rx="20.48" ry="6.827"/>
    <ellipse style="fill:#EA3457;" cx="98.986" cy="109.227" rx="40.96" ry="13.653"/>
    <g>
</g>
    <g>
</g>
    <g>
</g>
    <g>
</g>
    <g>
</g>
    <g>
</g>
    <g>
</g>
    <g>
</g>
    <g>
</g>
    <g>
</g>
    <g>
</g>
    <g>
</g>
    <g>
</g>
    <g>
</g>
    <g>
</g>
</svg>
