<?xml version="1.0" encoding="iso-8859-1"?>
<!-- Generator: Adobe Illustrator 19.0.0, SVG Export Plug-In . SVG Version: 6.00 Build 0)  -->
<svg version="1.1" id="Layer_1" xmlns="http://www.w3.org/2000/svg" xmlns:xlink="http://www.w3.org/1999/xlink" x="0px"
     y="0px"
     viewBox="0 0 512.001 512.001" style="enable-background:new 0 0 512.001 512.001;" xml:space="preserve">
<g>
	<path style="fill:#92949B;" d="M504.28,449.086c-4.263,0-7.72-3.456-7.72-7.72v-25.52h-135.91c-4.263,0-7.72-3.456-7.72-7.72
		c0-4.263,3.456-7.72,7.72-7.72h143.63c4.263,0,7.72,3.456,7.72,7.72v33.24C512,445.63,508.545,449.086,504.28,449.086z"/>
    <path style="fill:#92949B;" d="M305.04,65.891l-60.894,8.638c24.564,9.3,23.993,60.331,42.084,78.701s54.844,4.079,63.766,28.827
		l35.611-35.598L305.04,65.891z"/>
</g>
    <path style="fill:#E8B33F;" d="M349.996,182.055c6.897,19.105,10.655,39.709,10.655,61.185v180.326H180.326
	C80.73,423.566,0,342.835,0,243.24c0-49.785,20.176-94.879,52.811-127.501c32.635-32.635,77.716-52.824,127.514-52.824
	c22.472,0,43.984,4.111,63.82,11.614C293.275,93.128,332.152,132.56,349.996,182.055z M180.326,308.661
	c36.128,0,65.409-29.294,65.409-65.421c0-36.116-29.28-65.409-65.409-65.409s-65.409,29.294-65.409,65.409
	C114.916,279.368,144.198,308.661,180.326,308.661z"/>
    <path style="fill:#D39F37;" d="M35.509,243.24c0-49.785,20.176-94.879,52.811-127.501c28.706-28.707,67.045-47.776,109.751-51.953
	c-5.839-0.57-11.758-0.871-17.746-0.871c-49.797,0-94.879,20.189-127.514,52.824C20.176,148.361,0,193.455,0,243.24
	c0,99.595,80.73,180.325,180.326,180.325h35.509C116.24,423.566,35.509,342.835,35.509,243.24z"/>
    <path style="fill:#92949B;" d="M245.735,243.239c0,36.128-29.284,65.422-65.412,65.422c-8.543,0-16.706-1.637-24.178-4.622
	c-24.158-9.614-41.223-33.215-41.223-60.801c0-36.118,29.273-65.412,65.402-65.412c7.082,0,13.906,1.122,20.287,3.211
	C226.806,189.571,245.735,214.202,245.735,243.239z"/>
    <path style="fill:#B5B6BA;" d="M245.735,243.239c0,36.128-29.284,65.422-65.412,65.422c-8.543,0-16.706-1.637-24.178-4.622
	c23.067-48.243,37.044-94.294,44.466-123.001C226.806,189.571,245.735,214.202,245.735,243.239z"/>
    <path style="fill:#D39F37;" d="M180.326,316.381c-40.324,0-73.129-32.811-73.129-73.141c0-40.324,32.806-73.129,73.129-73.129
	s73.129,32.806,73.129,73.129C253.455,283.57,220.649,316.381,180.326,316.381z M180.326,185.551
	c-31.81,0-57.689,25.88-57.689,57.689c0,31.817,25.88,57.701,57.689,57.701s57.689-25.885,57.689-57.701
	C238.015,211.429,212.135,185.551,180.326,185.551z"/>
    <g>
</g>
    <g>
</g>
    <g>
</g>
    <g>
</g>
    <g>
</g>
    <g>
</g>
    <g>
</g>
    <g>
</g>
    <g>
</g>
    <g>
</g>
    <g>
</g>
    <g>
</g>
    <g>
</g>
    <g>
</g>
    <g>
</g>
</svg>
