<svg height="464pt" viewBox="-72 0 464 464" width="464pt" xmlns="http://www.w3.org/2000/svg">
    <path d="m96 0v96h-96v160l56 56 48-48 56 48 56-48 48 48 56-56v-256zm176 208h-224v-80h224zm0 0" fill="#ffdaaa"/>
    <path d="m96 0-96 96h96zm0 0" fill="#ff7956"/>
    <path d="m264 352-48-48-56 48-56-48-48 48-56-56v168h320v-168zm0 0" fill="#ffdaaa"/>
    <path d="m48 128h224v80h-224zm0 0" fill="#ffcd00"/>
    <path d="m11.199219 307.199219-11.199219-11.199219v168h208c-91.351562 0-168.800781-65.535156-196.800781-156.800781zm0 0"
          fill="#ffc477"/>
    <g fill="#f1f2f2">
        <path d="m120 56h16v16h-16zm0 0"/>
        <path d="m152 56h120v16h-120zm0 0"/>
        <path d="m120 88h16v16h-16zm0 0"/>
        <path d="m152 88h120v16h-120zm0 0"/>
        <path d="m56 384h208v16h-208zm0 0"/>
        <path d="m56 416h208v16h-208zm0 0"/>
    </g>
</svg>