<svg height="512" viewBox="0 0 56 58" width="512" xmlns="http://www.w3.org/2000/svg">
    <g id="Page-1" fill="none" fill-rule="evenodd">
        <g id="019---Toilet-Roll" fill-rule="nonzero">
            <path id="Shape"
                  d="m42 15v-9c0-3.31-6.27-6-14-6s-14 2.69-14 6v9c-7.73 0-14 2.69-14 6v24c0 3.31 6.27 6 14 6v7s14-1.2 14-12v-1c0 3.31 6.27 6 14 6v7s14-1.2 14-12v-25c0-3.31-6.27-6-14-6z"
                  fill="#ecf0f1"/>
            <ellipse id="Oval" cx="14" cy="21" fill="#a59078" rx="5" ry="2"/>
            <ellipse id="Oval" cx="28" cy="6" fill="#a59078" rx="5" ry="2"/>
            <path id="Shape" d="m28 21c0 10.8-14 12-14 12v18c-7.73 0-14-2.69-14-6v-24c0 3.31 6.27 6 14 6s14-2.69 14-6z"
                  fill="#bdc3c7"/>
            <path id="Shape" d="m56 21c0 10.8-14 12-14 12v18c-7.73 0-14-2.69-14-6v-24c0 3.31 6.27 6 14 6s14-2.69 14-6z"
                  fill="#bdc3c7"/>
            <ellipse id="Oval" cx="42" cy="21" fill="#a59078" rx="5" ry="2"/>
            <path id="Shape" d="m42 6v9c-7.73 0-14 2.69-14 6 0-3.31-6.27-6-14-6v-9c0 3.31 6.27 6 14 6s14-2.69 14-6z"
                  fill="#bdc3c7"/>
        </g>
    </g>
</svg>