<?xml version="1.0" encoding="iso-8859-1"?>
<!-- Generator: Adobe Illustrator 21.0.0, SVG Export Plug-In . SVG Version: 6.00 Build 0)  -->
<svg xmlns="http://www.w3.org/2000/svg" xmlns:xlink="http://www.w3.org/1999/xlink" version="1.1" id="Capa_1" x="0px" y="0px" viewBox="0 0 512 512" style="enable-background:new 0 0 512 512;" xml:space="preserve" width="512" height="512">
<g>
	<g>
		<g>
			<path style="fill:#C9DFF7;" d="M277.575,139.19L256,144.606L50.001,92.916V24.377c0-8.284,6.716-15,15-15h0     c76.939,0,128.288,30.476,157.816,56.042c32.203,27.882,46.093,55.974,46.669,57.156L277.575,139.19z"/>
			<path style="fill:#9EBBDB;" d="M446.99,9.377c-76.939,0-128.288,30.476-157.816,56.042     c-14.743,12.764-25.636,25.565-33.182,35.815v43.372L461.99,92.916V24.377C461.99,16.093,455.274,9.377,446.99,9.377z"/>
		</g>
		<g>
			<path style="fill:#F0F6FE;" d="M255.999,502.623c-2.272,0-4.549-0.516-6.651-1.556c-1.433-0.702-100.15-48.444-234.348-48.444     c-8.284,0-15-6.716-15-15V79.141c0-8.284,6.716-15,15-15c141.874,0,243.402,49.452,247.655,51.557     c5.111,2.53,8.345,7.74,8.345,13.443v358.482c0,5.188-2.681,10.008-7.089,12.744     C261.497,501.865,258.752,502.623,255.999,502.623z"/>
			<path style="fill:#C9DFF7;" d="M497,64.141c-130.548,0-216.272,36.223-241,48.174v390.308h0c2.504,0,5.012-0.627,7.277-1.884     c0.867-0.481,88.404-48.116,233.723-48.116c8.284,0,15-6.716,15-15V79.141C512,70.856,505.284,64.141,497,64.141z"/>
		</g>
	</g>
	<g>
		<g>
			<path style="fill:#606A70;" d="M316.003,420.343c-6.396,0-12.321-4.123-14.319-10.552c-2.458-7.911,1.961-16.317,9.873-18.776     c38.78-12.052,80.528-20.167,124.085-24.121c8.244-0.749,15.546,5.332,16.294,13.583c0.749,8.25-5.332,15.545-13.583,16.294     c-41.46,3.764-81.125,11.466-117.894,22.893C318.977,420.124,317.477,420.343,316.003,420.343z"/>
			<path style="fill:#606A70;" d="M316.003,360.343c-6.396,0-12.321-4.123-14.319-10.552c-2.458-7.911,1.961-16.317,9.873-18.776     c38.78-12.052,80.528-20.167,124.085-24.121c8.244-0.753,15.546,5.332,16.294,13.583c0.749,8.25-5.332,15.545-13.583,16.294     c-41.46,3.764-81.125,11.466-117.894,22.893C318.977,360.124,317.477,360.343,316.003,360.343z"/>
			<path style="fill:#606A70;" d="M316.003,300.343c-6.396,0-12.321-4.123-14.319-10.552c-2.458-7.911,1.961-16.317,9.873-18.776     c38.78-12.052,80.528-20.167,124.085-24.121c8.244-0.749,15.546,5.332,16.294,13.583c0.749,8.25-5.332,15.545-13.583,16.294     c-41.46,3.764-81.125,11.466-117.894,22.893C318.977,300.124,317.477,300.343,316.003,300.343z"/>
			<path style="fill:#606A70;" d="M316.003,240.343c-6.396,0-12.321-4.123-14.319-10.552c-2.458-7.911,1.961-16.317,9.873-18.776     c38.78-12.052,80.528-20.167,124.085-24.121c8.244-0.754,15.546,5.331,16.294,13.583c0.749,8.25-5.332,15.545-13.583,16.294     c-41.46,3.764-81.125,11.466-117.894,22.893C318.977,240.124,317.477,240.343,316.003,240.343z"/>
			<path style="fill:#606A70;" d="M316.003,180.343c-6.396,0-12.321-4.123-14.319-10.552c-2.458-7.911,1.961-16.317,9.873-18.776     c38.78-12.052,80.528-20.167,124.085-24.121c8.244-0.75,15.546,5.332,16.294,13.583c0.749,8.25-5.332,15.545-13.583,16.294     c-41.46,3.764-81.125,11.466-117.894,22.893C318.977,180.124,317.477,180.343,316.003,180.343z"/>
		</g>
		<g>
			<path style="fill:#606A70;" d="M195.498,420.343c-1.475,0-2.974-0.219-4.456-0.68c-36.768-11.427-76.433-19.129-117.894-22.893     c-8.25-0.749-14.332-8.044-13.583-16.294c0.749-8.251,8.05-14.335,16.294-13.583c43.558,3.954,85.307,12.069,124.085,24.121     c7.911,2.459,12.331,10.865,9.873,18.776C207.819,416.219,201.894,420.343,195.498,420.343z"/>
			<path style="fill:#606A70;" d="M195.498,360.343c-1.475,0-2.974-0.219-4.456-0.68c-36.768-11.427-76.433-19.129-117.894-22.893     c-8.25-0.749-14.332-8.044-13.583-16.294c0.749-8.251,8.05-14.333,16.294-13.583c43.558,3.954,85.307,12.069,124.085,24.121     c7.911,2.459,12.331,10.865,9.873,18.776C207.819,356.219,201.894,360.343,195.498,360.343z"/>
			<path style="fill:#606A70;" d="M195.498,300.343c-1.475,0-2.974-0.219-4.456-0.68c-36.768-11.427-76.433-19.129-117.894-22.893     c-8.25-0.749-14.332-8.044-13.583-16.294c0.749-8.251,8.05-14.339,16.294-13.583c43.558,3.954,85.307,12.069,124.085,24.121     c7.911,2.459,12.331,10.865,9.873,18.776C207.819,296.219,201.894,300.343,195.498,300.343z"/>
			<path style="fill:#606A70;" d="M195.492,240.339c-1.492,0-2.992-0.222-4.451-0.676c-36.768-11.427-76.433-19.129-117.894-22.893     c-7.727-0.701-13.644-7.18-13.644-14.938v-60c0-4.214,1.772-8.234,4.884-11.076c3.111-2.842,7.269-4.243,11.472-3.863     c43.558,3.954,85.307,12.069,124.085,24.121c6.273,1.95,10.548,7.755,10.548,14.324v60c0,4.768-2.267,9.251-6.105,12.079     C201.779,239.338,198.655,240.339,195.492,240.339z"/>
		</g>
	</g>
</g>















</svg>
