<svg height="512" viewBox="0 0 58 58" width="512" xmlns="http://www.w3.org/2000/svg">
    <g id="Page-1" fill="none" fill-rule="evenodd">
        <g id="020---Brand-Design" fill-rule="nonzero">
            <path id="Shape"
                  d="m48 2v12h-48v-12c.0032948-1.10320187.89679813-1.9967052 2-2h44c1.1032019.0032948 1.9967052.89679813 2 2z"
                  fill="#f0c419"/>
            <path id="Shape"
                  d="m48 14v42c-.0032948 1.1032019-.8967981 1.9967052-2 2h-44c-1.10320187-.0032948-1.9967052-.8967981-2-2v-42z"
                  fill="#ecf0f1"/>
            <rect id="Rectangle-path" fill="#f0c419" height="20" rx="2" width="30" x="28" y="18"/>
            <rect id="Rectangle-path" fill="#f29c1f" height="6" rx="2" width="16" x="4" y="4"/>
            <path id="Shape"
                  d="m44 5h-8c-.5522847 0-1-.44771525-1-1s.4477153-1 1-1h8c.5522847 0 1 .44771525 1 1s-.4477153 1-1 1z"
                  fill="#ecf0f1"/>
            <path id="Shape"
                  d="m44 9h-5c-.5522847 0-1-.44771525-1-1s.4477153-1 1-1h5c.5522847 0 1 .44771525 1 1s-.4477153 1-1 1z"
                  fill="#ecf0f1"/>
            <rect id="Rectangle-path" fill="#f29c1f" height="6" rx="2" width="12" x="32" y="22"/>
            <path id="Shape"
                  d="m54 35h-7c-.5522847 0-1-.4477153-1-1s.4477153-1 1-1h7c.5522847 0 1 .4477153 1 1s-.4477153 1-1 1z"
                  fill="#ecf0f1"/>
            <path id="Shape"
                  d="m54 31h-3c-.5522847 0-1-.4477153-1-1s.4477153-1 1-1h3c.5522847 0 1 .4477153 1 1s-.4477153 1-1 1z"
                  fill="#ecf0f1"/>
            <g fill="#35495e">
                <path id="Shape"
                      d="m15 20h-10c-.55228475 0-1-.4477153-1-1s.44771525-1 1-1h10c.5522847 0 1 .4477153 1 1s-.4477153 1-1 1z"/>
                <path id="Shape"
                      d="m8 24h-3c-.55228475 0-1-.4477153-1-1s.44771525-1 1-1h3c.55228475 0 1 .4477153 1 1s-.44771525 1-1 1z"/>
                <path id="Shape"
                      d="m18 24h-6c-.5522847 0-1-.4477153-1-1s.4477153-1 1-1h6c.5522847 0 1 .4477153 1 1s-.4477153 1-1 1z"/>
                <path id="Shape"
                      d="m13 31h-8c-.55228475 0-1-.4477153-1-1s.44771525-1 1-1h8c.5522847 0 1 .4477153 1 1s-.4477153 1-1 1z"/>
                <path id="Shape"
                      d="m23 35h-14c-.55228475 0-1-.4477153-1-1s.44771525-1 1-1h14c.5522847 0 1 .4477153 1 1s-.4477153 1-1 1z"/>
                <path id="Shape"
                      d="m23 39h-19c-.55228475 0-1-.4477153-1-1s.44771525-1 1-1h19c.5522847 0 1 .4477153 1 1s-.4477153 1-1 1z"/>
                <path id="Shape"
                      d="m44 43h-40c-.55228475 0-1-.4477153-1-1s.44771525-1 1-1h40c.5522847 0 1 .4477153 1 1s-.4477153 1-1 1z"/>
                <path id="Shape"
                      d="m17 47h-13c-.55228475 0-1-.4477153-1-1s.44771525-1 1-1h13c.5522847 0 1 .4477153 1 1s-.4477153 1-1 1z"/>
                <path id="Shape"
                      d="m33 47h-12c-.5522847 0-1-.4477153-1-1s.4477153-1 1-1h12c.5522847 0 1 .4477153 1 1s-.4477153 1-1 1z"/>
                <path id="Shape"
                      d="m44 51h-12c-.5522847 0-1-.4477153-1-1s.4477153-1 1-1h12c.5522847 0 1 .4477153 1 1s-.4477153 1-1 1z"/>
            </g>
        </g>
    </g>
</svg>