<svg height="512pt" viewBox="-16 0 512 512" width="512pt" xmlns="http://www.w3.org/2000/svg">
    <path d="m480 241v226c0 25.007812-20.558594 45-45 45-24.902344 0-75-20.101562-75-45v-226zm0 0" fill="#a3a3d1"/>
    <path d="m390 467v-467h-390v452c0 33 27 60 60 60h375c-24.902344 0-45-20.101562-45-45zm0 0" fill="#f2f2fc"/>
    <g fill="#d8d8fc">
        <path d="m435 512h-240v-512h195v467c0 24.898438 20.097656 45 45 45zm0 0"/>
        <path d="m60 362h270v30h-270zm0 0"/>
        <path d="m60 422h270v30h-270zm0 0"/>
    </g>
    <path d="m195 61c-74.398438 0-135 60.601562-135 135s60.601562 135 135 135 135-60.601562 135-135-60.601562-135-135-135zm0 0"
          fill="#4bb9ec"/>
    <path d="m330 196c0 74.398438-60.601562 135-135 135v-270c74.398438 0 135 60.601562 135 135zm0 0" fill="#0095ff"/>
    <path d="m226.800781 227.800781 21.300781 21.300781c-14.101562 14.097657-33.003906 21.898438-53.101562 21.898438-41.398438 0-75-33.601562-75-75 0-45 36.597656-74.097656 75-74.699219 18.898438-.300781 38.101562 6.597657 53.101562 21.597657l-21.300781 21.300781c-9-9-20.402343-12.898438-31.800781-12.898438-22.800781.300781-45 17.398438-45 44.699219s22.199219 44.398438 45 44.699219c11.101562.300781 22.800781-3.898438 31.800781-12.898438zm0 0"
          fill="#f2f2fc"/>
    <path d="m226.800781 227.800781 21.300781 21.300781c-14.101562 14.097657-33.003906 21.898438-53.101562 21.898438v-30.300781c11.101562.300781 22.800781-3.898438 31.800781-12.898438zm0 0"
          fill="#d8d8fc"/>
    <path d="m226.800781 164.199219c-9-9-20.402343-12.898438-31.800781-12.898438v-30c18.898438-.300781 38.101562 6.597657 53.101562 21.597657zm0 0"
          fill="#d8d8fc"/>
    <path d="m195 362h135v30h-135zm0 0" fill="#a3a3d1"/>
    <path d="m195 422h135v30h-135zm0 0" fill="#a3a3d1"/>
</svg>