<svg id="Capa_1" enable-background="new 0 0 512 512" height="512" viewBox="0 0 512 512" width="512"
     xmlns="http://www.w3.org/2000/svg">
    <g>
        <circle cx="256" cy="256" fill="#8cbcff" r="256"/>
        <path d="m256 0v512c141.385 0 256-114.615 256-256s-114.615-256-256-256z" fill="#7c84e8"/>
        <g>
            <path d="m397.227 313.748c15.617-6.06 26.677-20.822 26.677-38.04 0-22.602-19.047-40.989-42.459-40.989h-26.574c-.005 0-.011.001-.016.001s-.011-.001-.016-.001c-8.284 0-15 6.716-15 15v100c0 8.284 6.716 15 15 15s15-6.716 15-15v-21.682l27.806 31.592c2.965 3.369 7.104 5.09 11.266 5.09 3.52 0 7.055-1.231 9.904-3.74 6.219-5.473 6.823-14.951 1.35-21.17zm-15.782-49.029c6.754 0 12.459 5.032 12.459 10.989 0 5.956-5.705 10.988-12.459 10.988-2.768 0-7.103.016-11.472.036-.021-4.246-.046-17.562-.058-22.014h11.53z"
                  fill="#d5d3ea"/>
            <path d="m415.812 96.188c-5.857-5.857-15.355-5.857-21.213 0l-127.993 127.993c-5.858 5.857-5.858 15.355 0 21.213 2.929 2.929 6.768 4.394 10.606 4.394s7.678-1.465 10.606-4.394l127.992-127.992c5.86-5.858 5.86-15.356.002-21.214z"
                  fill="#39326c"/>
            <path d="m426.418 40.582c-24.813 0-45 20.187-45 45s20.187 45 45 45 45-20.187 45-45-20.187-45-45-45z"
                  fill="#d5d3ea"/>
        </g>
        <path d="m256 211c-24.813 0-45 20.187-45 45s20.187 45 45 45 45-20.187 45-45-20.187-45-45-45z" fill="#eae7ea"/>
        <path d="m256 211v90c24.813 0 45-20.187 45-45s-20.187-45-45-45z" fill="#d5d3ea"/>
    </g>
</svg>