<svg id="Capa_1" enable-background="new 0 0 512 512" height="512" viewBox="0 0 512 512" width="512"
     xmlns="http://www.w3.org/2000/svg" xmlns:xlink="http://www.w3.org/1999/xlink">
    <linearGradient id="SVGID_1_" gradientUnits="userSpaceOnUse" x1="256" x2="256" y1="512" y2="0">
        <stop offset="0" stop-color="#00b59c"/>
        <stop offset="1" stop-color="#9cffac"/>
    </linearGradient>
    <g>
        <g>
            <g>
                <path d="m317 0c-107.523 0-195 87.477-195 195 0 48.374 17.713 92.685 46.984 126.803l-20.29 20.29-10.604-10.604c-5.857-5.858-15.355-5.858-21.213 0l-112.484 112.482c-5.858 5.858-5.858 15.355 0 21.213l42.422 42.422c5.857 5.857 15.355 5.858 21.213 0l112.483-112.483c5.858-5.858 5.858-15.355 0-21.213l-10.604-10.604 20.29-20.29c34.118 29.271 78.429 46.984 126.803 46.984 107.523 0 195-87.477 195-195s-87.477-195-195-195zm-259.578 475.787-21.208-21.209 91.27-91.27 21.208 21.209zm259.578-115.787c-90.981 0-165-74.019-165-165s74.019-165 165-165 165 74.019 165 165-74.019 165-165 165z"
                      fill="url(#SVGID_1_)"/>
            </g>
        </g>
    </g>
</svg>