<svg id="Capa_1" enable-background="new 0 0 512 512" height="512" viewBox="0 0 512 512" width="512"
     xmlns="http://www.w3.org/2000/svg">
    <g>
        <path d="m251.827 135.469h114.229v9.608c0 8.284 6.716 15 15 15s15-6.716 15-15v-9.608h28.952c8.284 0 15-6.716 15-15s-6.716-15-15-15h-28.952v-9.609c0-8.284-6.716-15-15-15s-15 6.716-15 15v9.608h-114.229c-8.284 0-15 6.716-15 15s6.716 15.001 15 15.001z"/>
        <g>
            <path d="m251.827 403.692h28.951v12.447c0 8.284 6.716 15 15 15s15-6.716 15-15v-12.447h114.23c8.284 0 15-6.716 15-15s-6.716-15-15-15h-114.23v-6.77c0-8.284-6.716-15-15-15s-15 6.716-15 15v6.77h-28.951c-8.284 0-15 6.716-15 15s6.716 15 15 15z"/>
            <path d="m497 1.443h-317.165c-8.284 0-15 6.716-15 15v54.218c-10.983 3.331-21.645 7.6-31.879 12.775l-20.369-20.195c-5.87-5.82-15.342-5.794-21.181.057l-61.131 61.271c-2.815 2.822-4.392 6.649-4.381 10.637.011 3.986 1.609 7.805 4.44 10.611l18.788 18.623c-5.802 10.629-10.565 21.743-14.245 33.233h-19.877c-8.284 0-15 6.716-15 15v86.652c0 8.284 6.716 15 15 15h19.878c3.68 11.49 8.443 22.604 14.245 33.233l-18.788 18.623c-2.831 2.807-4.43 6.625-4.44 10.611-.011 3.987 1.565 7.814 4.381 10.637l61.131 61.271c2.931 2.937 6.773 4.405 10.619 4.405 3.817 0 7.637-1.449 10.562-4.349l20.369-20.195c10.234 5.174 20.896 9.444 31.879 12.775v54.218c0 8.284 6.716 15 15 15h317.164c8.284 0 15-6.716 15-15v-479.111c0-8.284-6.716-15-15-15zm-332.165 343.306c-10.951-7.335-20.495-16.721-28.17-27.793-12.418-17.917-18.981-38.994-18.981-60.956s6.563-43.039 18.981-60.956c7.675-11.072 17.219-20.458 28.17-27.793zm0-211.949c-21.147 10.145-39.272 25.599-52.826 45.155-15.914 22.959-24.325 49.947-24.325 78.045s8.411 55.086 24.325 78.045c13.555 19.556 31.679 35.01 52.826 45.155v30.532c-9.343-3.4-18.37-7.625-26.986-12.635-5.862-3.409-13.284-2.46-18.102 2.315l-17.664 17.515-39.94-40.032 16.37-16.227c4.993-4.949 5.879-12.703 2.13-18.651-9.073-14.396-15.777-29.999-19.925-46.375-1.687-6.655-7.676-11.316-14.541-11.316h-16.177v-56.652h16.177c6.865 0 12.854-4.661 14.541-11.316 4.147-16.376 10.852-31.979 19.925-46.375 3.749-5.948 2.863-13.702-2.13-18.651l-16.37-16.227 39.94-40.032 17.664 17.515c4.816 4.775 12.237 5.725 18.102 2.315 8.616-5.01 17.644-9.234 26.986-12.635zm317.165 347.757h-287.165v-449.114h287.165z"/>
            <path d="m251.827 224.877h28.951v9.607c0 8.284 6.716 15 15 15s15-6.716 15-15v-9.607h114.23c8.284 0 15-6.716 15-15s-6.716-15-15-15h-114.23v-9.608c0-8.284-6.716-15-15-15s-15 6.716-15 15v9.608h-28.951c-8.284 0-15 6.716-15 15s6.716 15 15 15z"/>
            <path d="m251.827 314.285h114.229v9.607c0 8.284 6.716 15 15 15s15-6.716 15-15v-9.607h28.952c8.284 0 15-6.716 15-15s-6.716-15-15-15h-28.952v-9.608c0-8.284-6.716-15-15-15s-15 6.716-15 15v9.608h-114.229c-8.284 0-15 6.716-15 15s6.716 15 15 15z"/>
        </g>
    </g>
</svg>