<?xml version="1.0" encoding="iso-8859-1"?>
<!-- Generator: Adobe Illustrator 16.0.0, SVG Export Plug-In . SVG Version: 6.00 Build 0)  -->
<!DOCTYPE svg PUBLIC "-//W3C//DTD SVG 1.1//EN" "http://www.w3.org/Graphics/SVG/1.1/DTD/svg11.dtd">
<svg version="1.1" id="Capa_1" xmlns="http://www.w3.org/2000/svg" xmlns:xlink="http://www.w3.org/1999/xlink" x="0px" y="0px"
	 width="321.638px" height="321.637px" viewBox="0 0 321.638 321.637" style="enable-background:new 0 0 321.638 321.637;"
	 xml:space="preserve">
<g>
	<g>
		<path d="M305.659,152.001l-18.437,8.068c4.789,2.215,9.292,4.904,13.49,8.016l20.909-9.154L305.659,152.001z"/>
		<path d="M117.25,231.936L14.314,169.309L0,174.086l120.058,73.037l59.187-25.902c0.575-5.301,1.709-10.432,3.312-15.356
			l-60.338,26.403l-2.571,1.124L117.25,231.936z"/>
		<path d="M305.227,132.013L289.259,139l-3.375,1.474l-3.386,1.479l-25.418,11.125c8.079,0.187,15.847,1.64,23.129,4.163
			l18.685-8.177l3.38-1.474l3.375-1.474l15.974-6.987L305.227,132.013z"/>
		<path d="M198.039,178.907l-75.822,33.181l-2.571,1.123l-2.397-1.461l-81.514-49.581l-3.019-1.84l-3.021-1.841l-14.987-9.115
			L0,154.283l14.984,9.109l3.024,1.846l3.017,1.835l99.032,60.249l65.203-28.534C188.473,191.489,192.823,184.813,198.039,178.907z"
			/>
		<path d="M304.668,111.588l-16.406,7.178l-3.375,1.474l-3.38,1.479l-15.974,6.987l-3.375,1.474l-3.38,1.479l-136.561,59.756
			l-2.571,1.128l-2.397-1.461l-59.563-36.241l-3.024-1.835l-3.022-1.841l-14.987-9.115l-3.022-1.837l-3.024-1.835l-15.38-9.357
			L0,134.101l15.377,9.357l3.024,1.838l3.024,1.835l14.984,9.115l3.024,1.841l3.02,1.838l77.609,47.21l90.553-39.619
			c8.759-6.333,18.862-10.893,29.853-13.062l35.279-15.438l3.375-1.479l3.375-1.474l15.979-6.99l3.375-1.479l3.375-1.474
			l16.411-7.177L304.668,111.588z"/>
		<polygon points="305.732,91.381 288.769,98.806 285.388,100.283 282.013,101.761 265.612,108.936 262.237,110.418 
			258.852,111.897 242.884,118.884 239.509,120.364 236.123,121.837 122.217,171.682 119.646,172.8 117.25,171.344 78.64,147.854 
			75.616,146.014 72.597,144.178 57.612,135.063 54.588,133.22 51.569,131.385 36.189,122.027 33.17,120.19 30.141,118.349 
			14.238,108.678 0,113.424 15.902,123.101 18.926,124.944 21.945,126.779 37.323,136.136 40.347,137.972 43.366,139.815 
			58.351,148.93 61.375,150.765 64.394,152.608 120.058,186.469 252.013,128.733 255.393,127.253 258.768,125.774 274.741,118.787 
			278.121,117.308 281.496,115.833 297.901,108.651 301.276,107.177 304.657,105.698 321.622,98.273 		"/>
		<path d="M201.562,26.452L0,93.688l14.908,9.073l3.024,1.835l3.024,1.84l15.902,9.677l3.024,1.843l3.02,1.835l15.38,9.357
			l3.016,1.835l3.024,1.843l14.987,9.115l3.022,1.835l3.024,1.835l34.707,21.112l109.3-47.819l3.38-1.479l3.375-1.474l15.974-6.987
			l3.38-1.479l3.375-1.477l16.405-7.175l3.375-1.479l3.381-1.482l16.965-7.425l3.375-1.479l3.385-1.479l15.895-6.956L201.562,26.452
			z M56.5,112.707c-0.103-0.071-0.19-0.135-0.292-0.2c-0.965-0.654-1.872-1.295-2.737-1.938c-5.734-4.25-9.052-8.176-9.634-11.768
			c-0.161-0.991-0.113-1.959,0.158-2.9c0.345-1.229,1.047-2.423,2.154-3.562c1.197-1.237,2.824-2.42,4.952-3.549
			c8.714-4.627,15.248-5.706,20.875-5.064c1.822,0.205,3.554,0.585,5.218,1.107c1.371,0.432,2.721,0.923,4.04,1.503
			c1.29,0.559,2.568,1.16,3.85,1.798c5.215,2.595,8.77,5.411,11.048,8.206c0.627,0.772,1.189,1.545,1.627,2.307
			c0.475,0.841,0.81,1.669,1.068,2.489c1.571,4.983-0.717,9.439-5.028,11.862c-9.487,5.353-21.378,8.82-34.617,1.363
			C58.298,113.856,57.401,113.305,56.5,112.707z M98.067,135.678l-10.6-6.534l57.51-23.229l40.511-16.363l18.356-7.415l10.879-4.396
			l14.017,7.523l-9.007,3.765l-3.454,1.439l-3.465,1.448l-65.098,27.201l-33.784,14.114l-11.82,4.936l-1.047-0.648L98.067,135.678z
			 M242.304,101.772l-3.406,1.469l-16.09,6.94l-3.396,1.46l-3.407,1.472l-90.671,39.095l-14.674-8.981l72.845-30.354l19.76-8.234
			l3.454-1.442l16.369-6.818l3.47-1.442l3.454-1.442l6.491-2.705l15.293,6.89l-6.091,2.626L242.304,101.772z"/>
		<path d="M295.956,242.03c2.067,0,3.417-1.076,4.055-3.228c0.644-2.151,0.966-5.263,0.966-9.323c0-4.25-0.322-7.404-0.966-9.45
			c-0.638-2.046-1.987-3.069-4.055-3.069s-3.428,1.023-4.093,3.069c-0.669,2.046-1.002,5.2-1.002,9.45
			c0,4.061,0.333,7.172,1.002,9.323C292.533,240.954,293.894,242.03,295.956,242.03z"/>
		<path d="M255.287,295.186c36.281,0,65.696-29.415,65.696-65.696c0-21.632-10.494-40.764-26.631-52.734
			c-0.833-0.622-1.646-1.266-2.505-1.852c-0.912-0.611-1.872-1.144-2.821-1.714c-4.946-2.974-10.304-5.315-15.999-6.908
			c-1.403-0.396-2.801-0.791-4.24-1.097c-1.624-0.337-3.285-0.564-4.946-0.78c-2.811-0.358-5.653-0.611-8.554-0.611
			c-22.17,0-41.729,11.011-53.631,27.822c-0.938,1.329-1.814,2.711-2.658,4.113c-0.765,1.276-1.508,2.568-2.183,3.902
			c-2.637,5.146-4.651,10.652-5.854,16.475c-0.222,1.033-0.338,2.109-0.496,3.164c-0.169,1.055-0.369,2.088-0.485,3.158
			c-0.247,2.326-0.39,4.678-0.39,7.062C189.58,265.771,218.995,295.186,255.287,295.186z M249.302,243.886
			c-2.094,2.568-5.226,3.85-9.392,3.85c-3.359,0-6.117-0.896-8.27-2.7c-2.162-1.804-3.364-4.366-3.606-7.678h6.919
			c0.273,1.508,0.801,2.679,1.576,3.49c0.786,0.823,1.914,1.234,3.401,1.234c1.72,0,3.027-0.602,3.935-1.814
			c0.896-1.213,1.35-2.731,1.35-4.572c0-1.803-0.422-3.316-1.266-4.571c-0.844-1.245-2.151-1.856-3.934-1.856
			c-0.844,0-1.572,0.105-2.188,0.316c-1.081,0.391-1.904,1.112-2.452,2.162l-6.223-0.295l2.479-19.512h19.438v5.896H236.63
			l-1.266,7.726c1.065-0.696,1.909-1.16,2.505-1.387c1.007-0.375,2.23-0.56,3.676-0.56c2.921,0,5.463,0.981,7.636,2.942
			c2.178,1.962,3.264,4.831,3.264,8.575C252.444,238.407,251.39,241.323,249.302,243.886z M277.673,242.958
			c-1.814,3.154-4.968,4.726-9.466,4.726c-4.504,0-7.657-1.571-9.471-4.726c-1.814-3.143-2.711-7.636-2.711-13.468
			c0-5.833,0.896-10.336,2.711-13.5c1.813-3.164,4.967-4.746,9.471-4.746c4.498,0,7.651,1.582,9.466,4.746
			c1.809,3.164,2.716,7.667,2.716,13.5C280.389,235.322,279.481,239.815,277.673,242.958z M295.956,211.244
			c4.498,0,7.651,1.582,9.466,4.746c1.809,3.164,2.716,7.667,2.716,13.5c0,5.832-0.907,10.325-2.716,13.468
			c-1.814,3.154-4.968,4.726-9.466,4.726c-4.504,0-7.657-1.571-9.466-4.726c-1.814-3.143-2.716-7.636-2.716-13.468
			c0-5.833,0.901-10.336,2.716-13.5C288.299,212.826,291.452,211.244,295.956,211.244z M202.426,217.719
			c2.184-0.105,3.713-0.242,4.594-0.433c1.392-0.316,2.525-0.934,3.401-1.861c0.601-0.633,1.055-1.472,1.36-2.536c0,0,0,0,0-0.011
			c0.18-0.622,0.264-1.092,0.264-1.403h2.942h2.854v35.332h-7.114v-24.368h-8.301V217.719z"/>
		<path d="M268.207,216.965c-2.067,0-3.428,1.028-4.092,3.074c-0.676,2.046-1.008,5.189-1.008,9.45c0,4.061,0.332,7.161,1.008,9.317
			c0.664,2.146,2.024,3.233,4.092,3.233c2.062,0,3.412-1.076,4.056-3.233c0.638-2.156,0.959-5.257,0.959-9.317
			c0-4.261-0.321-7.404-0.959-9.45C271.619,217.994,270.269,216.965,268.207,216.965z"/>
	</g>
</g>
<g>
</g>
<g>
</g>
<g>
</g>
<g>
</g>
<g>
</g>
<g>
</g>
<g>
</g>
<g>
</g>
<g>
</g>
<g>
</g>
<g>
</g>
<g>
</g>
<g>
</g>
<g>
</g>
<g>
</g>
</svg>
